<svg xmlns="http://www.w3.org/2000/svg" xmlns:xlink="http://www.w3.org/1999/xlink" width="500" zoomAndPan="magnify" viewBox="0 0 375 374.999991" height="500" preserveAspectRatio="xMidYMid meet" version="1.0"><defs><g/><clipPath id="4e27e6fa49"><path d="M 7.960938 70.542969 L 367.039062 70.542969 L 367.039062 304.457031 L 7.960938 304.457031 Z M 7.960938 70.542969 " clip-rule="nonzero"/></clipPath><clipPath id="281057f471"><path d="M 7.964844 70.542969 L 367.035156 70.542969 L 367.035156 304.449219 L 7.964844 304.449219 Z M 7.964844 70.542969 " clip-rule="nonzero"/></clipPath></defs><rect x="-37.5" width="450" fill="#ffffff" y="-37.499999" height="449.999989" fill-opacity="1"/><rect x="-37.5" width="450" fill="#000000" y="-37.499999" height="449.999989" fill-opacity="1"/><g clip-path="url(#4e27e6fa49)"><path fill="#000000" d="M 7.960938 70.542969 L 367.050781 70.542969 L 367.050781 304.457031 L 7.960938 304.457031 Z M 7.960938 70.542969 " fill-opacity="1" fill-rule="nonzero"/></g><g clip-path="url(#281057f471)"><path stroke-linecap="butt" transform="matrix(0.75, 0, 0, 0.75, 7.963233, 70.54476)" fill="none" stroke-linejoin="miter" d="M 0.00214828 -0.00238856 L 478.762596 -0.00238856 L 478.762596 311.872632 L 0.00214828 311.872632 Z M 0.00214828 -0.00238856 " stroke="#ffffff" stroke-width="8" stroke-opacity="1" stroke-miterlimit="4"/></g><g fill="#ffffff" fill-opacity="1"><g transform="translate(27.405719, 191.309953)"><g><path d="M 57.15625 -66.8125 L 54.84375 -52.109375 L 40.5 -52.109375 L 32.25 0 L 14.890625 0 L 23.125 -52.109375 L 8.765625 -52.109375 L 11.078125 -66.8125 Z M 57.15625 -66.8125 "/></g></g></g><g fill="#ffffff" fill-opacity="1"><g transform="translate(65.238051, 191.309953)"><g><path d="M 59.109375 -43.421875 C 57.390625 -50.503906 53.046875 -54.046875 46.078125 -54.046875 C 42.410156 -54.046875 38.96875 -52.847656 35.75 -50.453125 C 32.53125 -48.066406 29.972656 -44.910156 28.078125 -40.984375 C 26.191406 -37.054688 25.25 -33.050781 25.25 -28.96875 C 25.25 -23.894531 26.578125 -19.804688 29.234375 -16.703125 C 31.898438 -13.597656 35.476562 -12.046875 39.96875 -12.046875 C 44.039062 -12.046875 47.460938 -13.078125 50.234375 -15.140625 C 53.015625 -17.210938 54.847656 -20.050781 55.734375 -23.65625 L 41.5625 -23.65625 L 43.765625 -37.296875 L 78.234375 -37.296875 C 76.703125 -27.960938 74.117188 -20.59375 70.484375 -15.1875 C 66.859375 -9.789062 62.253906 -5.539062 56.671875 -2.4375 C 51.085938 0.664062 44.722656 2.21875 37.578125 2.21875 C 28.359375 2.21875 20.957031 -0.378906 15.375 -5.578125 C 9.789062 -10.773438 7 -17.71875 7 -26.40625 C 7 -34.03125 8.800781 -41.117188 12.40625 -47.671875 C 16.007812 -54.222656 21.054688 -59.421875 27.546875 -63.265625 C 34.046875 -67.109375 41.34375 -69.03125 49.4375 -69.03125 C 63.5625 -69.03125 72.628906 -62.796875 76.640625 -50.328125 Z M 59.109375 -43.421875 "/></g></g></g><g fill="#ffffff" fill-opacity="1"><g transform="translate(130.448551, 191.309953)"><g><path d="M 40.671875 -66.8125 L 48.640625 -31.109375 L 68.578125 -66.8125 L 85.859375 -66.8125 L 85.421875 0 L 68.046875 0 L 69.296875 -38.453125 L 69.109375 -38.453125 L 46.96875 0 L 40.046875 0 L 30.84375 -38.453125 L 30.65625 -38.453125 L 18.96875 0 L 1.6875 0 L 23.5625 -66.8125 Z M 40.671875 -66.8125 "/></g></g></g><path stroke-linecap="butt" transform="matrix(1.661461, 0, 0, 1.661461, 174.175277, 164.315908)" fill="none" stroke-linejoin="miter" d="M 37.547254 12.794947 C 40.784709 12.794947 43.307431 13.446199 45.11307 14.746354 C 46.925763 16.039455 47.833284 18.002617 47.833284 20.631139 C 47.833284 25.92815 45.863069 29.534727 41.922637 31.450867 L 41.922637 31.556666 C 46.436735 32.163248 48.693784 34.742397 48.693784 39.28941 C 48.693784 43.594261 47.226703 46.958675 44.292539 49.3803 C 41.358375 51.792521 37.403837 53.000983 32.431276 53.000983 L 16.051213 53.000983 L 22.406217 12.794947 Z M 31.624851 20.788662 L 30.399932 28.575481 L 31.780023 28.575481 C 35.833307 28.575481 37.859949 26.990844 37.859949 23.821571 C 37.859949 22.798846 37.469668 22.039443 36.689105 21.543363 C 35.908542 21.040229 34.575473 20.788662 32.692247 20.788662 Z M 27.783166 45.004917 L 30.127205 45.004917 C 33.077827 45.004917 35.156193 44.562911 36.362303 43.676549 C 37.577818 42.783134 38.186751 41.534704 38.186751 39.928907 C 38.186751 38.652264 37.721235 37.74004 36.792553 37.194587 C 35.873276 36.637378 34.293342 36.359949 32.05275 36.359949 L 29.123289 36.359949 Z M 75.73135 12.794947 L 74.339504 21.646811 L 61.91633 21.646811 L 60.848934 28.366234 L 72.63261 28.366234 L 71.252519 37.220449 L 59.457087 37.220449 L 58.337967 44.146768 L 70.770545 44.146768 L 69.378698 53.000983 L 46.502566 53.000983 L 52.855218 12.794947 Z M 101.165471 12.794947 L 99.773624 21.646811 L 91.140412 21.646811 L 86.179606 53.000983 L 75.724297 53.000983 L 80.685103 21.646811 L 72.054241 21.646811 L 73.434333 12.794947 Z M 101.165471 12.794947 " stroke="#000000" stroke-width="5.399997" stroke-opacity="1" stroke-miterlimit="4"/><g fill="#ffffff" fill-opacity="1"><g transform="translate(174.175277, 252.373367)"><g/></g></g><g fill="#ffffff" fill-opacity="1"><g transform="translate(195.177189, 252.373367)"><g><path d="M 41.375 -66.8125 C 46.75 -66.8125 50.941406 -65.734375 53.953125 -63.578125 C 56.972656 -61.421875 58.484375 -58.15625 58.484375 -53.78125 C 58.484375 -44.976562 55.203125 -38.984375 48.640625 -35.796875 L 48.640625 -35.625 C 56.148438 -34.613281 59.90625 -30.328125 59.90625 -22.765625 C 59.90625 -15.617188 57.46875 -10.035156 52.59375 -6.015625 C 47.71875 -2.003906 41.144531 0 32.875 0 L 5.671875 0 L 16.21875 -66.8125 Z M 31.546875 -53.515625 L 29.5 -40.578125 L 31.8125 -40.578125 C 38.539062 -40.578125 41.90625 -43.207031 41.90625 -48.46875 C 41.90625 -50.175781 41.253906 -51.441406 39.953125 -52.265625 C 38.660156 -53.097656 36.445312 -53.515625 33.3125 -53.515625 Z M 25.171875 -13.296875 L 29.0625 -13.296875 C 33.96875 -13.296875 37.421875 -14.03125 39.421875 -15.5 C 41.429688 -16.976562 42.4375 -19.046875 42.4375 -21.703125 C 42.4375 -23.835938 41.671875 -25.359375 40.140625 -26.265625 C 38.609375 -27.179688 35.976562 -27.640625 32.25 -27.640625 L 27.375 -27.640625 Z M 25.171875 -13.296875 "/></g></g></g><g fill="#ffffff" fill-opacity="1"><g transform="translate(245.768291, 252.373367)"><g><path d="M 54.234375 -66.8125 L 51.921875 -52.109375 L 31.28125 -52.109375 L 29.5 -40.9375 L 49.09375 -40.9375 L 46.78125 -26.234375 L 27.203125 -26.234375 L 25.34375 -14.703125 L 45.984375 -14.703125 L 43.6875 0 L 5.671875 0 L 16.21875 -66.8125 Z M 54.234375 -66.8125 "/></g></g></g><g fill="#ffffff" fill-opacity="1"><g transform="translate(285.106855, 252.373367)"><g><path d="M 57.15625 -66.8125 L 54.84375 -52.109375 L 40.5 -52.109375 L 32.25 0 L 14.890625 0 L 23.125 -52.109375 L 8.765625 -52.109375 L 11.078125 -66.8125 Z M 57.15625 -66.8125 "/></g></g></g><path stroke-linecap="butt" transform="matrix(1.661461, 0, 0, 1.661461, 153.173358, 164.315908)" fill="none" stroke-linejoin="miter" d="M 28.955165 46.763534 C 28.955165 48.717292 28.200464 50.421834 26.688711 51.879512 C 25.17931 53.33954 23.498279 54.068379 21.65032 54.068379 C 20.157376 54.068379 18.894839 53.572298 17.862709 52.582488 C 16.837633 51.585625 16.325095 50.299577 16.325095 48.729047 C 16.325095 46.810556 17.079796 45.14128 18.591548 43.716518 C 20.10095 42.294107 21.77963 41.581726 23.62994 41.581726 C 25.15815 41.581726 26.425389 42.070753 27.431657 43.05351 C 28.447329 44.033915 28.955165 45.27059 28.955165 46.763534 Z M 28.955165 46.763534 " stroke="#000000" stroke-width="5.399997" stroke-opacity="1" stroke-miterlimit="4"/><g fill="#ffffff" fill-opacity="1"><g transform="translate(153.173358, 252.373367)"><g/></g></g><g fill="#ffffff" fill-opacity="1"><g transform="translate(174.17527, 252.373367)"><g><path d="M 27.109375 -10.375 C 27.109375 -7.125 25.851562 -4.285156 23.34375 -1.859375 C 20.832031 0.554688 18.039062 1.765625 14.96875 1.765625 C 12.488281 1.765625 10.390625 0.941406 8.671875 -0.703125 C 6.960938 -2.359375 6.109375 -4.488281 6.109375 -7.09375 C 6.109375 -10.28125 7.363281 -13.054688 9.875 -15.421875 C 12.382812 -17.785156 15.175781 -18.96875 18.25 -18.96875 C 20.789062 -18.96875 22.898438 -18.15625 24.578125 -16.53125 C 26.265625 -14.90625 27.109375 -12.851562 27.109375 -10.375 Z M 27.109375 -10.375 "/></g></g></g></svg>