<svg xmlns="http://www.w3.org/2000/svg" xmlns:xlink="http://www.w3.org/1999/xlink" width="500" zoomAndPan="magnify" viewBox="0 0 375 374.999991" height="500" preserveAspectRatio="xMidYMid meet" version="1.0"><defs><g/><clipPath id="0b02b4f901"><path d="M 61.640625 200.703125 L 89.359375 200.703125 L 89.359375 218.441406 L 61.640625 218.441406 Z M 61.640625 200.703125 " clip-rule="nonzero"/></clipPath><clipPath id="210c94c2e0"><path d="M 285.710938 199.777344 L 313.464844 199.777344 L 313.464844 217.570312 L 285.710938 217.570312 Z M 285.710938 199.777344 " clip-rule="nonzero"/></clipPath><clipPath id="8462539e0d"><path d="M 178 84.199219 L 196 84.199219 L 196 112 L 178 112 Z M 178 84.199219 " clip-rule="nonzero"/></clipPath><clipPath id="857e4c0b54"><path d="M 112.789062 160 L 168 160 L 168 222.144531 L 112.789062 222.144531 Z M 112.789062 160 " clip-rule="nonzero"/></clipPath><clipPath id="96873fca82"><path d="M 207 160 L 262.039062 160 L 262.039062 222.144531 L 207 222.144531 Z M 207 160 " clip-rule="nonzero"/></clipPath><clipPath id="59250f6b16"><path d="M 155 150.144531 L 220 150.144531 L 220 222.144531 L 155 222.144531 Z M 155 150.144531 " clip-rule="nonzero"/></clipPath></defs><rect x="-37.5" width="450" fill="#ffffff" y="-37.499999" height="449.999989" fill-opacity="1"/><rect x="-37.5" width="450" fill="#000000" y="-37.499999" height="449.999989" fill-opacity="1"/><g clip-path="url(#0b02b4f901)"><path fill="#ffffff" d="M 61.640625 214.988281 L 61.992188 203.390625 C 62.039062 201.902344 63.289062 200.71875 64.777344 200.765625 L 86.707031 201.429688 C 88.195312 201.476562 89.375 202.730469 89.332031 204.21875 L 88.980469 215.816406 C 88.933594 217.304688 87.679688 218.484375 86.191406 218.441406 L 64.261719 217.773438 C 62.777344 217.730469 61.597656 216.476562 61.640625 214.988281 " fill-opacity="1" fill-rule="evenodd"/></g><path fill="#ff0000" d="M 69.203125 212.300781 C 69.238281 211.160156 69.757812 210.144531 70.5625 209.453125 C 69.800781 208.714844 69.34375 207.671875 69.378906 206.527344 C 69.441406 204.367188 71.246094 202.664062 73.410156 202.730469 C 74.636719 202.769531 75.714844 203.367188 76.40625 204.273438 L 76.433594 204.246094 L 81.679688 209.789062 L 76.109375 215.003906 L 76.082031 214.976562 C 75.335938 215.839844 74.222656 216.371094 72.996094 216.335938 C 70.835938 216.269531 69.136719 214.464844 69.203125 212.300781 " fill-opacity="1" fill-rule="evenodd"/><path fill="#ffffff" d="M 64.648438 182.523438 L 67.875 171.375 C 68.289062 169.945312 69.796875 169.113281 71.226562 169.527344 L 92.300781 175.628906 C 93.730469 176.042969 94.5625 177.550781 94.148438 178.980469 L 90.921875 190.128906 C 90.507812 191.558594 89 192.390625 87.570312 191.976562 L 66.496094 185.875 C 65.066406 185.460938 64.234375 183.953125 64.648438 182.523438 " fill-opacity="1" fill-rule="evenodd"/><path fill="#ffffff" d="M 75.890625 152.03125 L 81.722656 142.003906 C 82.472656 140.714844 84.136719 140.273438 85.421875 141.023438 L 104.386719 152.0625 C 105.671875 152.808594 106.113281 154.472656 105.363281 155.761719 L 99.535156 165.792969 C 98.785156 167.078125 97.121094 167.519531 95.835938 166.769531 L 76.871094 155.734375 C 75.582031 154.984375 75.144531 153.320312 75.890625 152.03125 " fill-opacity="1" fill-rule="evenodd"/><path fill="#ffffff" d="M 94.496094 125.507812 L 102.542969 117.152344 C 103.574219 116.078125 105.296875 116.046875 106.367188 117.078125 L 122.171875 132.304688 C 123.242188 133.335938 123.273438 135.0625 122.242188 136.132812 L 114.195312 144.488281 C 113.164062 145.5625 111.441406 145.59375 110.371094 144.5625 L 94.566406 129.335938 C 93.496094 128.304688 93.464844 126.582031 94.496094 125.507812 " fill-opacity="1" fill-rule="evenodd"/><path fill="#ffffff" d="M 271.488281 116.3125 L 279.839844 124.363281 C 280.914062 125.394531 280.945312 127.117188 279.914062 128.191406 L 264.695312 144 C 263.664062 145.070312 261.941406 145.105469 260.867188 144.070312 L 252.515625 136.023438 C 251.441406 134.988281 251.410156 133.265625 252.441406 132.195312 L 267.660156 116.386719 C 268.695312 115.3125 270.414062 115.28125 271.488281 116.3125 " fill-opacity="1" fill-rule="evenodd"/><path fill="#ffffff" d="M 293.152344 141.300781 L 298.882812 151.390625 C 299.621094 152.683594 299.164062 154.34375 297.867188 155.082031 L 278.792969 165.925781 C 277.5 166.660156 275.839844 166.203125 275.105469 164.910156 L 269.375 154.820312 C 268.640625 153.527344 269.097656 151.867188 270.390625 151.128906 L 289.464844 140.285156 C 290.757812 139.550781 292.417969 140.007812 293.152344 141.300781 " fill-opacity="1" fill-rule="evenodd"/><path fill="#ffffff" d="M 307.167969 170.621094 L 310.277344 181.796875 C 310.675781 183.230469 309.832031 184.730469 308.398438 185.132812 L 287.261719 191.019531 C 285.828125 191.421875 284.328125 190.574219 283.929688 189.140625 L 280.816406 177.960938 C 280.417969 176.527344 281.265625 175.027344 282.699219 174.628906 L 303.832031 168.738281 C 305.269531 168.339844 306.765625 169.1875 307.167969 170.621094 " fill-opacity="1" fill-rule="evenodd"/><g clip-path="url(#210c94c2e0)"><path fill="#ffffff" d="M 313.230469 202.617188 L 313.464844 214.21875 C 313.496094 215.707031 312.300781 216.949219 310.816406 216.980469 L 288.878906 217.425781 C 287.390625 217.453125 286.148438 216.261719 286.121094 214.773438 L 285.886719 203.171875 C 285.855469 201.683594 287.046875 200.441406 288.535156 200.410156 L 310.46875 199.964844 C 311.957031 199.933594 313.199219 201.128906 313.230469 202.617188 " fill-opacity="1" fill-rule="evenodd"/></g><path fill="#ff0000" d="M 305.8125 205.679688 C 305.835938 206.824219 305.367188 207.863281 304.601562 208.59375 C 305.398438 209.292969 305.90625 210.3125 305.929688 211.457031 C 305.972656 213.621094 304.257812 215.410156 302.097656 215.453125 C 300.871094 215.476562 299.761719 214.933594 299.027344 214.0625 L 299 214.089844 L 293.476562 208.820312 L 298.78125 203.332031 L 298.808594 203.359375 C 299.507812 202.457031 300.59375 201.871094 301.820312 201.84375 C 303.984375 201.800781 305.769531 203.519531 305.8125 205.679688 " fill-opacity="1" fill-rule="evenodd"/><path fill="#ed1b1c" d="M 91.871094 149.1875 L 83.964844 149.1875 L 87.402344 156.308594 L 95.308594 156.308594 L 91.871094 149.1875 " fill-opacity="1" fill-rule="evenodd"/><path fill="#000000" d="M 72.195312 178.335938 C 72.683594 176.644531 74.449219 175.671875 76.136719 176.160156 C 77.226562 176.476562 78.015625 177.320312 78.308594 178.332031 C 78.207031 177.84375 78.222656 177.320312 78.371094 176.808594 C 78.859375 175.117188 80.625 174.144531 82.3125 174.632812 C 84.003906 175.121094 84.976562 176.886719 84.484375 178.578125 C 84.25 179.394531 83.71875 180.042969 83.039062 180.441406 L 86.730469 181.507812 L 86.175781 183.417969 L 82.488281 182.347656 C 82.847656 183.046875 82.953125 183.882812 82.714844 184.695312 C 82.226562 186.386719 80.460938 187.359375 78.773438 186.871094 C 77.085938 186.382812 76.113281 184.613281 76.601562 182.925781 C 76.75 182.410156 77.015625 181.964844 77.363281 181.601562 C 76.574219 182.300781 75.453125 182.59375 74.367188 182.277344 C 72.679688 181.789062 71.707031 180.023438 72.195312 178.335938 " fill-opacity="1" fill-rule="evenodd"/><path fill="#000000" d="M 109.28125 135.625 C 109.753906 135.132812 110.074219 134.546875 110.242188 133.929688 L 112.035156 135.660156 L 113.429688 134.214844 L 111.632812 132.484375 C 112.242188 132.292969 112.816406 131.953125 113.289062 131.460938 C 114.785156 129.902344 114.742188 127.425781 113.183594 125.925781 C 112.300781 125.070312 111.117188 124.71875 109.988281 124.859375 L 109.984375 124.820312 L 102.355469 124.9375 L 102.523438 132.570312 L 102.5625 132.570312 C 102.464844 133.707031 102.863281 134.875 103.746094 135.726562 C 105.304688 137.226562 107.78125 137.179688 109.28125 135.625 " fill-opacity="1" fill-rule="evenodd"/><path fill="#000000" d="M 271.441406 124.808594 C 272.710938 126.027344 272.746094 128.046875 271.527344 129.3125 C 270.742188 130.128906 269.625 130.433594 268.59375 130.222656 C 269.074219 130.363281 269.53125 130.617188 269.914062 130.988281 C 271.179688 132.207031 271.21875 134.222656 270 135.492188 C 268.78125 136.757812 266.765625 136.796875 265.496094 135.574219 C 264.886719 134.988281 264.5625 134.214844 264.527344 133.425781 L 261.859375 136.195312 L 260.429688 134.816406 L 263.09375 132.046875 C 262.308594 132.042969 261.523438 131.746094 260.910156 131.15625 C 259.644531 129.9375 259.609375 127.921875 260.828125 126.652344 C 262.046875 125.386719 264.0625 125.347656 265.328125 126.570312 C 265.714844 126.941406 265.984375 127.386719 266.144531 127.863281 C 265.890625 126.835938 266.15625 125.710938 266.941406 124.894531 C 268.160156 123.625 270.175781 123.589844 271.441406 124.808594 " fill-opacity="1" fill-rule="evenodd"/><path fill="#ed1b1c" d="M 286.082031 156.828125 L 290.058594 149.992188 L 282.175781 149.382812 L 278.199219 156.21875 L 286.082031 156.828125 " fill-opacity="1" fill-rule="evenodd"/><path fill="#000000" d="M 289.90625 178.148438 C 290.085938 178.804688 290.429688 179.378906 290.875 179.832031 L 288.472656 180.503906 L 289.011719 182.4375 L 291.414062 181.769531 C 291.265625 182.390625 291.269531 183.054688 291.453125 183.714844 C 292.035156 185.796875 294.195312 187.015625 296.273438 186.433594 C 297.457031 186.105469 298.359375 185.265625 298.816406 184.21875 L 298.851562 184.238281 L 302.621094 177.601562 L 295.960938 173.871094 L 295.945312 173.90625 C 295.015625 173.246094 293.808594 172.996094 292.625 173.324219 C 290.542969 173.90625 289.324219 176.0625 289.90625 178.148438 " fill-opacity="1" fill-rule="evenodd"/><path fill="#ffffff" d="M 119.652344 104.0625 L 129.734375 98.328125 C 131.03125 97.59375 132.6875 98.050781 133.425781 99.347656 L 144.265625 118.429688 C 145 119.722656 144.542969 121.382812 143.25 122.121094 L 133.167969 127.851562 C 131.871094 128.589844 130.210938 128.132812 129.476562 126.835938 L 118.636719 107.753906 C 117.902344 106.460938 118.359375 104.800781 119.652344 104.0625 " fill-opacity="1" fill-rule="evenodd"/><path fill="#ff0000" d="M 125.878906 109.128906 C 126.871094 108.5625 128.007812 108.480469 129.015625 108.804688 C 129.253906 107.773438 129.902344 106.839844 130.898438 106.273438 C 132.777344 105.203125 135.167969 105.863281 136.234375 107.742188 C 136.84375 108.8125 136.890625 110.042969 136.476562 111.105469 L 136.515625 111.117188 L 134.511719 118.484375 L 127.164062 116.433594 L 127.171875 116.394531 C 126.046875 116.210938 125.015625 115.535156 124.410156 114.46875 C 123.339844 112.585938 124 110.195312 125.878906 109.128906 " fill-opacity="1" fill-rule="evenodd"/><path fill="#ffffff" d="M 244.828125 97.894531 L 254.855469 103.730469 C 256.140625 104.476562 256.582031 106.140625 255.832031 107.429688 L 244.800781 126.402344 C 244.050781 127.691406 242.386719 128.128906 241.101562 127.382812 L 231.078125 121.546875 C 229.789062 120.796875 229.347656 119.132812 230.097656 117.847656 L 241.128906 98.871094 C 241.878906 97.585938 243.542969 97.144531 244.828125 97.894531 " fill-opacity="1" fill-rule="evenodd"/><path fill="#ff0000" d="M 243.585938 105.824219 C 244.574219 106.398438 245.214844 107.339844 245.441406 108.378906 C 246.453125 108.0625 247.589844 108.15625 248.578125 108.730469 C 250.445312 109.816406 251.078125 112.214844 249.992188 114.085938 C 249.375 115.144531 248.335938 115.808594 247.210938 115.984375 L 247.21875 116.023438 L 239.847656 118 L 237.921875 110.609375 L 237.960938 110.601562 C 237.554688 109.535156 237.617188 108.304688 238.234375 107.242188 C 239.320312 105.371094 241.71875 104.738281 243.585938 105.824219 " fill-opacity="1" fill-rule="evenodd"/><path fill="#ffffff" d="M 149.054688 90.273438 L 160.226562 87.160156 C 161.660156 86.761719 163.160156 87.609375 163.558594 89.042969 L 169.445312 110.1875 C 169.84375 111.621094 169 113.121094 167.566406 113.519531 L 156.390625 116.632812 C 154.957031 117.035156 153.457031 116.1875 153.058594 114.753906 L 147.171875 93.609375 C 146.773438 92.175781 147.617188 90.671875 149.054688 90.273438 " fill-opacity="1" fill-rule="evenodd"/><path fill="#000000" d="M 155.976562 94.667969 C 157.671875 94.195312 159.425781 95.1875 159.898438 96.882812 C 160.203125 97.976562 159.898438 99.09375 159.191406 99.875 C 159.554688 99.53125 160.003906 99.269531 160.519531 99.125 C 162.214844 98.652344 163.96875 99.644531 164.441406 101.339844 C 164.914062 103.03125 163.921875 104.789062 162.230469 105.261719 C 161.414062 105.488281 160.582031 105.375 159.886719 105.007812 L 160.917969 108.710938 L 159.003906 109.242188 L 157.972656 105.539062 C 157.566406 106.214844 156.914062 106.742188 156.097656 106.96875 C 154.402344 107.441406 152.648438 106.449219 152.175781 104.757812 C 151.703125 103.0625 152.695312 101.304688 154.386719 100.832031 C 154.902344 100.691406 155.425781 100.683594 155.914062 100.789062 C 154.90625 100.484375 154.066406 99.683594 153.765625 98.59375 C 153.292969 96.898438 154.28125 95.140625 155.976562 94.667969 " fill-opacity="1" fill-rule="evenodd"/><g clip-path="url(#8462539e0d)"><path fill="#ffffff" d="M 181.074219 84.460938 L 192.667969 84.222656 C 194.15625 84.195312 195.398438 85.386719 195.429688 86.875 L 195.871094 108.820312 C 195.902344 110.308594 194.710938 111.550781 193.222656 111.582031 L 181.625 111.816406 C 180.140625 111.847656 178.894531 110.652344 178.867188 109.164062 L 178.421875 87.21875 C 178.390625 85.730469 179.585938 84.488281 181.074219 84.460938 " fill-opacity="1" fill-rule="evenodd"/></g><path fill="#ed1b1c" d="M 191.351562 98.078125 L 187.238281 91.320312 L 182.945312 97.964844 L 187.058594 104.71875 L 191.351562 98.078125 " fill-opacity="1" fill-rule="evenodd"/><path fill="#ffffff" d="M 213.519531 86.988281 L 224.808594 89.65625 C 226.257812 90 227.164062 91.464844 226.820312 92.914062 L 221.78125 114.273438 C 221.4375 115.722656 219.972656 116.628906 218.523438 116.285156 L 207.238281 113.621094 C 205.789062 113.277344 204.882812 111.8125 205.226562 110.363281 L 210.265625 89.003906 C 210.609375 87.554688 212.074219 86.648438 213.519531 86.988281 " fill-opacity="1" fill-rule="evenodd"/><path fill="#000000" d="M 212.3125 105.917969 C 212.976562 106.074219 213.644531 106.050781 214.257812 105.878906 L 213.683594 108.304688 L 215.640625 108.769531 L 216.210938 106.339844 C 216.683594 106.769531 217.269531 107.085938 217.933594 107.242188 C 220.039062 107.742188 222.144531 106.4375 222.644531 104.332031 C 222.925781 103.136719 222.625 101.941406 221.929688 101.039062 L 221.964844 101.015625 L 217.972656 94.507812 L 211.492188 98.542969 L 211.515625 98.578125 C 210.488281 99.074219 209.6875 100.011719 209.402344 101.207031 C 208.90625 103.3125 210.210938 105.417969 212.3125 105.917969 " fill-opacity="1" fill-rule="evenodd"/><path fill="#fffffe" d="M 214.25 166.402344 C 214.230469 166.492188 213.90625 166.5 213.710938 166.527344 C 213.519531 166.546875 213.34375 166.554688 213.1875 166.546875 L 210.21875 169.019531 C 210.347656 169.320312 210.507812 169.664062 210.691406 170.050781 C 210.875 170.4375 211.074219 170.839844 211.285156 171.257812 C 211.496094 171.675781 211.710938 172.097656 211.941406 172.53125 C 212.164062 172.960938 212.453125 173.382812 212.667969 173.773438 L 213.25 174.269531 L 213.136719 174.800781 L 210.863281 174.320312 L 210.457031 173.8125 C 210.3125 173.523438 210.167969 173.175781 210.015625 172.832031 C 209.863281 172.488281 209.714844 172.113281 209.570312 171.746094 C 209.425781 171.375 209.292969 170.984375 209.15625 170.609375 C 209.019531 170.238281 208.898438 169.863281 208.785156 169.503906 L 208.234375 169.386719 L 207.546875 172.628906 C 207.859375 172.730469 207.917969 172.796875 208.050781 172.894531 C 208.183594 172.992188 208.128906 173.050781 208.433594 173.195312 L 208.3125 173.777344 L 204.449219 172.957031 L 204.574219 172.375 C 204.914062 172.359375 204.914062 172.285156 205.101562 172.257812 C 205.285156 172.234375 205.605469 172.253906 205.613281 172.21875 L 207.097656 165.253906 C 207.097656 165.230469 206.761719 165.109375 206.597656 165.007812 C 206.4375 164.902344 206.507812 164.84375 206.207031 164.691406 L 206.296875 164.265625 L 210.15625 165.089844 L 210.066406 165.511719 C 209.730469 165.511719 209.757812 165.582031 209.589844 165.617188 C 209.425781 165.652344 209.355469 165.691406 209.027344 165.664062 L 208.359375 168.789062 L 209.136719 168.773438 L 211.75 166.242188 C 211.59375 166.175781 211.496094 166.101562 211.347656 165.996094 C 211.203125 165.894531 211.019531 165.785156 211.03125 165.71875 L 211.121094 165.292969 L 214.339844 165.976562 Z M 203.390625 149.992188 C 202.59375 153.75 203.585938 155.621094 204.496094 156.820312 L 199.605469 155.78125 C 200.925781 155.054688 202.59375 153.75 203.390625 149.992188 Z M 198.753906 153.097656 C 196.652344 152.652344 195.355469 150.367188 195.863281 148 C 196.191406 146.4375 197.257812 145.667969 198.34375 144.992188 C 200.492188 143.667969 204.75 141.597656 205.648438 139.375 C 205.566406 141.769531 208.613281 145.394531 210.03125 147.476562 C 210.753906 148.535156 211.414062 149.671875 211.082031 151.234375 C 210.578125 153.605469 208.464844 155.164062 206.363281 154.714844 C 204.261719 154.269531 202.96875 151.984375 203.46875 149.617188 C 202.96875 151.984375 200.855469 153.546875 198.753906 153.097656 Z M 194.148438 129.648438 C 194.167969 129.566406 194.492188 129.5625 194.675781 129.535156 C 194.863281 129.511719 194.859375 129.460938 195.1875 129.496094 L 196.667969 122.53125 C 196.351562 122.4375 196.335938 122.386719 196.171875 122.285156 C 196.011719 122.179688 195.761719 122.050781 195.78125 121.96875 L 195.910156 121.363281 L 199.449219 122.117188 L 199.320312 122.71875 C 199.304688 122.785156 199.011719 122.792969 198.847656 122.824219 C 198.679688 122.859375 198.609375 122.898438 198.277344 122.871094 L 197.613281 126 L 198.445312 125.996094 L 201.09375 123.46875 C 200.933594 123.402344 200.792969 123.316406 200.648438 123.214844 C 200.5 123.113281 200.269531 122.992188 200.285156 122.925781 L 200.414062 122.324219 L 203.632812 123.007812 L 203.503906 123.609375 C 203.484375 123.699219 203.21875 123.722656 203.027344 123.746094 C 202.832031 123.769531 202.683594 123.785156 202.527344 123.777344 L 199.574219 126.246094 C 199.707031 126.550781 199.871094 126.898438 200.054688 127.28125 C 200.238281 127.667969 200.4375 128.070312 200.648438 128.492188 C 200.859375 128.910156 201.082031 129.332031 201.308594 129.761719 C 201.535156 130.191406 201.765625 130.601562 201.980469 130.992188 L 202.503906 131.476562 L 202.429688 131.832031 L 200.273438 131.375 L 199.847656 130.957031 C 199.703125 130.667969 199.550781 130.367188 199.394531 130.019531 C 199.242188 129.675781 199.089844 129.335938 198.945312 128.964844 C 198.800781 128.59375 198.648438 128.28125 198.511719 127.90625 C 198.375 127.535156 198.238281 127.242188 198.125 126.882812 L 197.457031 126.738281 L 196.796875 129.839844 C 197.113281 129.941406 197.171875 130.003906 197.304688 130.101562 C 197.441406 130.199219 197.703125 130.328125 197.6875 130.402344 L 197.601562 130.804688 L 194.0625 130.054688 Z M 223.976562 122.285156 L 195.636719 116.261719 C 192.980469 115.699219 190.363281 117.398438 189.796875 120.054688 L 179.601562 168.023438 C 179.039062 170.675781 180.738281 173.296875 183.394531 173.859375 L 211.734375 179.882812 C 214.386719 180.449219 217.003906 178.75 217.570312 176.09375 L 227.769531 128.125 C 228.332031 125.46875 226.632812 122.851562 223.976562 122.285156 Z M 156.796875 131.480469 L 157.175781 129.070312 L 157.234375 128.023438 L 157.261719 128.019531 L 157.699219 128.933594 L 158.976562 131.019531 Z M 159.613281 134.238281 L 159.683594 134.566406 L 163.542969 133.746094 L 163.476562 133.417969 C 163.457031 133.332031 163.167969 133.320312 162.992188 133.292969 C 162.816406 133.265625 162.632812 133.226562 162.460938 133.226562 L 157.671875 125.914062 L 156.761719 126.109375 L 155.28125 134.753906 C 155.140625 134.816406 154.992188 134.914062 154.851562 135.007812 C 154.714844 135.101562 154.449219 135.25 154.464844 135.332031 L 154.535156 135.664062 L 157.753906 134.976562 L 157.683594 134.648438 C 157 134.59375 156.855469 134.539062 156.46875 134.570312 L 156.707031 132.507812 L 159.441406 131.929688 L 160.5625 133.699219 C 160.40625 133.765625 160.242188 133.835938 160.074219 133.9375 C 159.910156 134.042969 159.597656 134.164062 159.613281 134.238281 Z M 170.75 156.765625 L 175.640625 155.726562 C 174.320312 154.996094 172.652344 153.691406 171.855469 149.9375 C 172.652344 153.691406 171.660156 155.5625 170.75 156.765625 Z M 176.492188 153.042969 C 178.59375 152.597656 179.886719 150.3125 179.386719 147.941406 C 179.054688 146.382812 177.988281 145.613281 176.898438 144.9375 C 174.753906 143.609375 170.496094 141.539062 169.597656 139.320312 C 169.679688 141.714844 166.632812 145.335938 165.210938 147.421875 C 164.492188 148.480469 163.832031 149.617188 164.164062 151.179688 C 164.667969 153.546875 166.78125 155.109375 168.882812 154.660156 C 170.984375 154.214844 172.277344 151.929688 171.773438 149.558594 C 172.277344 151.929688 174.390625 153.488281 176.492188 153.042969 Z M 180.699219 174.492188 L 162.90625 178.273438 C 161.140625 178.652344 159.394531 177.519531 159.019531 175.75 L 148.824219 127.78125 C 148.449219 126.015625 149.582031 124.273438 151.347656 123.894531 L 179.6875 117.871094 C 181.457031 117.496094 183.199219 118.628906 183.578125 120.394531 L 185.8125 130.910156 L 186.652344 126.953125 L 185.183594 120.054688 C 184.621094 117.398438 182 115.699219 179.347656 116.261719 L 151.007812 122.285156 C 148.351562 122.851562 146.652344 125.46875 147.214844 128.125 L 157.410156 176.09375 C 157.976562 178.75 160.59375 180.449219 163.25 179.882812 L 183.445312 175.589844 L 183.050781 175.507812 C 182.183594 175.324219 181.390625 174.96875 180.699219 174.492188 " fill-opacity="1" fill-rule="nonzero"/><g clip-path="url(#857e4c0b54)"><path fill="#373737" d="M 163.332031 160.441406 L 112.800781 160.441406 L 112.800781 187.800781 L 131.871094 187.800781 C 130.410156 190.21875 129.03125 192.675781 127.761719 195.136719 C 125.882812 198.777344 124.308594 202.5625 123.085938 206.390625 C 121.804688 210.390625 121.15625 214.445312 121.15625 218.441406 L 121.15625 222.140625 L 149.644531 222.140625 L 149.644531 218.441406 C 149.644531 216.316406 149.871094 214.082031 150.320312 211.792969 C 150.785156 209.421875 151.410156 207.019531 152.183594 204.65625 C 152.957031 202.285156 153.921875 199.820312 155.054688 197.324219 C 156.226562 194.75 157.65625 191.824219 159.300781 188.628906 C 160.921875 185.484375 163.316406 181.5 166.414062 176.785156 L 167.023438 175.859375 L 167.023438 160.441406 Z M 163.332031 174.75 C 160.148438 179.589844 157.710938 183.648438 156.023438 186.929688 C 154.332031 190.207031 152.890625 193.164062 151.699219 195.792969 C 150.503906 198.421875 149.496094 200.992188 148.675781 203.507812 C 147.855469 206.019531 147.195312 208.542969 146.699219 211.078125 C 146.453125 212.347656 146.265625 213.59375 146.140625 214.820312 C 146.078125 215.433594 146.03125 216.042969 146 216.648438 C 145.96875 217.25 145.953125 217.847656 145.953125 218.441406 L 124.84375 218.441406 C 124.84375 214.8125 125.429688 211.171875 126.601562 207.519531 C 127.765625 203.867188 129.246094 200.308594 131.035156 196.839844 C 132.378906 194.242188 133.824219 191.671875 135.378906 189.136719 C 135.898438 188.292969 136.425781 187.453125 136.96875 186.613281 C 137.777344 185.359375 138.578125 184.15625 139.375 183.003906 C 140.695312 181.082031 141.996094 179.308594 143.269531 177.679688 L 132.15625 177.679688 L 132.15625 184.101562 L 116.492188 184.101562 L 116.492188 164.140625 L 163.332031 164.140625 L 163.332031 174.75 " fill-opacity="1" fill-rule="nonzero"/></g><path fill="#ff0000" d="M 143.269531 174.90625 L 148.957031 174.90625 L 145.449219 179.394531 C 143.46875 181.921875 141.398438 184.859375 139.289062 188.121094 C 137.882812 190.304688 136.550781 192.535156 135.292969 194.785156 C 134.675781 195.890625 134.070312 197.003906 133.496094 198.117188 C 133.066406 198.945312 132.65625 199.78125 132.261719 200.628906 C 131.476562 202.316406 130.765625 204.03125 130.128906 205.761719 C 129.8125 206.625 129.511719 207.496094 129.234375 208.367188 C 128.847656 209.582031 128.527344 210.800781 128.277344 212.019531 C 128.027344 213.238281 127.847656 214.457031 127.738281 215.667969 L 143.289062 215.667969 C 143.410156 213.992188 143.644531 212.277344 143.984375 210.542969 C 144.5 207.914062 145.191406 205.257812 146.046875 202.640625 C 146.257812 201.992188 146.484375 201.339844 146.71875 200.679688 C 147.429688 198.699219 148.253906 196.675781 149.179688 194.644531 C 150.390625 191.96875 151.867188 188.945312 153.566406 185.652344 C 155.207031 182.472656 157.558594 178.523438 160.566406 173.921875 L 160.566406 166.914062 L 119.261719 166.914062 L 119.261719 181.328125 L 129.386719 181.328125 L 129.386719 174.90625 Z M 143.078125 210.363281 C 142.789062 211.835938 142.578125 213.300781 142.441406 214.742188 L 128.765625 214.742188 C 129.015625 212.714844 129.464844 210.671875 130.113281 208.648438 C 131.210938 205.210938 132.625 201.8125 134.316406 198.542969 C 134.761719 197.675781 135.25 196.765625 135.839844 195.699219 C 139.773438 195.632812 143.8125 195.496094 147.878906 195.292969 C 146.828125 197.6875 145.917969 200.054688 145.167969 202.355469 C 144.304688 205.003906 143.601562 207.699219 143.078125 210.363281 " fill-opacity="1" fill-rule="nonzero"/><path fill="#373737" d="M 130.773438 177.679688 L 130.773438 176.292969 L 146.113281 176.292969 L 144.359375 178.535156 C 142.355469 181.097656 140.257812 184.070312 138.128906 187.367188 C 136.003906 190.660156 134.03125 194.0625 132.265625 197.476562 C 130.519531 200.863281 129.054688 204.382812 127.917969 207.941406 C 126.945312 210.976562 126.390625 214.035156 126.257812 217.054688 L 144.597656 217.054688 C 144.675781 215.027344 144.925781 212.933594 145.34375 210.8125 C 145.84375 208.238281 146.527344 205.636719 147.359375 203.074219 C 148.191406 200.527344 149.226562 197.882812 150.4375 195.21875 C 151.644531 192.566406 153.109375 189.5625 154.792969 186.292969 C 156.453125 183.070312 158.859375 179.046875 161.949219 174.332031 L 161.949219 165.527344 L 117.875 165.527344 L 117.875 182.714844 L 130.773438 182.714844 Z M 129.386719 177.679688 L 129.386719 181.328125 L 119.261719 181.328125 L 119.261719 166.914062 L 160.566406 166.914062 L 160.566406 173.921875 C 157.558594 178.523438 155.207031 182.472656 153.566406 185.652344 C 151.867188 188.945312 150.390625 191.96875 149.179688 194.644531 C 148.253906 196.675781 147.429688 198.699219 146.71875 200.679688 C 146.484375 201.339844 146.257812 201.992188 146.046875 202.640625 C 145.191406 205.257812 144.5 207.914062 143.984375 210.542969 C 143.644531 212.277344 143.410156 213.992188 143.289062 215.667969 L 127.738281 215.667969 C 127.847656 214.457031 128.027344 213.238281 128.277344 212.019531 C 128.527344 210.800781 128.847656 209.582031 129.234375 208.367188 C 129.511719 207.496094 129.8125 206.625 130.128906 205.761719 C 130.765625 204.03125 131.476562 202.316406 132.261719 200.628906 C 132.65625 199.78125 133.066406 198.945312 133.496094 198.117188 C 134.070312 197.003906 134.675781 195.890625 135.292969 194.785156 C 136.550781 192.535156 137.882812 190.304688 139.289062 188.121094 C 141.398438 184.859375 143.46875 181.921875 145.449219 179.394531 L 148.957031 174.90625 L 129.386719 174.90625 L 129.386719 177.679688 " fill-opacity="1" fill-rule="nonzero"/><path fill="#ffffff" d="M 116.492188 184.101562 L 132.15625 184.101562 L 132.15625 177.679688 L 143.269531 177.679688 C 141.996094 179.308594 140.695312 181.082031 139.375 183.003906 C 138.578125 184.15625 137.777344 185.359375 136.96875 186.613281 C 136.425781 187.453125 135.898438 188.292969 135.378906 189.136719 C 133.824219 191.671875 132.378906 194.242188 131.035156 196.839844 C 129.246094 200.308594 127.765625 203.867188 126.601562 207.519531 C 125.429688 211.171875 124.84375 214.8125 124.84375 218.441406 L 145.953125 218.441406 C 145.953125 217.847656 145.96875 217.25 146 216.648438 C 146.03125 216.042969 146.078125 215.433594 146.140625 214.820312 C 146.265625 213.59375 146.453125 212.347656 146.699219 211.078125 C 147.195312 208.542969 147.855469 206.019531 148.675781 203.507812 C 149.496094 200.992188 150.503906 198.421875 151.699219 195.792969 C 152.890625 193.164062 154.332031 190.207031 156.023438 186.929688 C 157.710938 183.648438 160.148438 179.589844 163.332031 174.75 L 163.332031 164.140625 L 116.492188 164.140625 Z M 117.875 165.527344 L 161.949219 165.527344 L 161.949219 174.332031 C 158.859375 179.046875 156.453125 183.070312 154.792969 186.292969 C 153.109375 189.5625 151.644531 192.566406 150.4375 195.21875 C 149.226562 197.882812 148.191406 200.527344 147.359375 203.074219 C 146.527344 205.636719 145.84375 208.238281 145.34375 210.8125 C 144.925781 212.933594 144.675781 215.027344 144.597656 217.054688 L 126.257812 217.054688 C 126.390625 214.035156 126.945312 210.976562 127.917969 207.941406 C 129.054688 204.382812 130.519531 200.863281 132.265625 197.476562 C 134.03125 194.0625 136.003906 190.660156 138.128906 187.367188 C 140.257812 184.070312 142.355469 181.097656 144.359375 178.535156 L 146.113281 176.292969 L 130.773438 176.292969 L 130.773438 182.714844 L 117.875 182.714844 L 117.875 165.527344 " fill-opacity="1" fill-rule="nonzero"/><path fill="#a80000" d="M 135.839844 195.699219 C 135.25 196.765625 134.761719 197.675781 134.316406 198.542969 C 132.625 201.8125 131.210938 205.210938 130.113281 208.648438 C 129.464844 210.671875 129.015625 212.714844 128.765625 214.742188 L 142.441406 214.742188 C 142.578125 213.300781 142.789062 211.835938 143.078125 210.363281 C 143.601562 207.699219 144.304688 205.003906 145.167969 202.355469 C 145.917969 200.054688 146.828125 197.6875 147.878906 195.292969 C 143.8125 195.496094 139.773438 195.632812 135.839844 195.699219 " fill-opacity="1" fill-rule="nonzero"/><g clip-path="url(#96873fca82)"><path fill="#373737" d="M 258.335938 160.441406 L 207.804688 160.441406 L 207.804688 187.800781 L 226.875 187.800781 C 225.414062 190.21875 224.035156 192.675781 222.765625 195.136719 C 220.886719 198.777344 219.3125 202.5625 218.089844 206.390625 C 216.808594 210.390625 216.160156 214.445312 216.160156 218.441406 L 216.160156 222.140625 L 244.648438 222.140625 L 244.648438 218.441406 C 244.648438 216.316406 244.875 214.082031 245.324219 211.792969 C 245.789062 209.421875 246.417969 207.019531 247.1875 204.65625 C 247.960938 202.285156 248.929688 199.820312 250.0625 197.324219 C 251.230469 194.75 252.660156 191.824219 254.304688 188.628906 C 255.925781 185.484375 258.320312 181.5 261.417969 176.785156 L 262.027344 175.859375 L 262.027344 160.441406 Z M 258.335938 174.75 C 255.15625 179.589844 252.71875 183.648438 251.027344 186.929688 C 249.335938 190.207031 247.894531 193.164062 246.703125 195.792969 C 245.507812 198.421875 244.5 200.992188 243.679688 203.507812 C 242.859375 206.019531 242.199219 208.542969 241.703125 211.078125 C 241.457031 212.347656 241.269531 213.59375 241.144531 214.820312 C 241.082031 215.433594 241.035156 216.042969 241.003906 216.648438 C 240.972656 217.25 240.957031 217.847656 240.957031 218.441406 L 219.851562 218.441406 C 219.851562 214.8125 220.433594 211.171875 221.605469 207.519531 C 222.769531 203.867188 224.25 200.308594 226.042969 196.839844 C 227.382812 194.242188 228.832031 191.671875 230.382812 189.136719 C 230.902344 188.292969 231.429688 187.453125 231.972656 186.613281 C 232.78125 185.359375 233.585938 184.15625 234.378906 183.003906 C 235.699219 181.082031 237 179.308594 238.273438 177.679688 L 227.160156 177.679688 L 227.160156 184.101562 L 211.496094 184.101562 L 211.496094 164.140625 L 258.335938 164.140625 L 258.335938 174.75 " fill-opacity="1" fill-rule="nonzero"/></g><path fill="#ff0000" d="M 238.273438 174.90625 L 243.960938 174.90625 L 240.453125 179.394531 C 239.957031 180.023438 239.457031 180.683594 238.953125 181.363281 C 237.941406 182.726562 236.910156 184.1875 235.867188 185.734375 C 235.347656 186.511719 234.820312 187.304688 234.292969 188.121094 C 233.769531 188.9375 233.253906 189.757812 232.746094 190.582031 C 231.464844 192.675781 230.261719 194.800781 229.128906 196.9375 C 228.917969 197.328125 228.703125 197.722656 228.5 198.117188 C 227.644531 199.773438 226.855469 201.464844 226.144531 203.175781 C 225.789062 204.035156 225.453125 204.894531 225.132812 205.761719 C 224.816406 206.625 224.519531 207.496094 224.238281 208.367188 C 223.460938 210.796875 222.960938 213.242188 222.742188 215.667969 L 238.292969 215.667969 C 238.355469 214.828125 238.441406 213.980469 238.558594 213.125 C 238.675781 212.269531 238.816406 211.410156 238.988281 210.542969 C 239.246094 209.230469 239.546875 207.90625 239.890625 206.585938 C 240.238281 205.265625 240.625 203.949219 241.050781 202.640625 C 241.472656 201.34375 241.949219 200.023438 242.472656 198.6875 C 242.734375 198.019531 243.007812 197.347656 243.292969 196.671875 C 243.578125 196 243.875 195.324219 244.183594 194.644531 C 245.394531 191.96875 246.871094 188.945312 248.570312 185.652344 C 248.867188 185.078125 249.195312 184.46875 249.535156 183.839844 C 249.90625 183.171875 250.292969 182.484375 250.710938 181.757812 C 251.523438 180.355469 252.433594 178.851562 253.4375 177.25 C 254.105469 176.179688 254.816406 175.070312 255.566406 173.921875 L 255.566406 166.914062 L 214.265625 166.914062 L 214.265625 181.328125 L 224.390625 181.328125 L 224.390625 174.90625 Z M 247.75 185.230469 C 246.046875 188.53125 244.5625 191.574219 243.339844 194.261719 C 242.097656 197.003906 241.03125 199.726562 240.171875 202.355469 C 239.308594 205.003906 238.605469 207.699219 238.082031 210.363281 C 237.796875 211.835938 237.582031 213.300781 237.445312 214.742188 L 223.769531 214.742188 C 224.019531 212.714844 224.472656 210.671875 225.117188 208.648438 C 226.214844 205.210938 227.628906 201.8125 229.320312 198.542969 C 231.046875 195.191406 232.984375 191.855469 235.070312 188.625 C 237.160156 185.382812 239.21875 182.46875 241.175781 179.964844 L 241.855469 179.097656 C 246.105469 177.71875 250.148438 176.273438 253.90625 174.785156 C 251.304688 178.832031 249.238281 182.339844 247.75 185.230469 " fill-opacity="1" fill-rule="nonzero"/><path fill="#373737" d="M 225.777344 177.679688 L 225.777344 176.292969 L 241.117188 176.292969 L 239.363281 178.535156 C 237.359375 181.097656 235.261719 184.070312 233.132812 187.367188 C 231.007812 190.660156 229.035156 194.0625 227.269531 197.476562 C 225.523438 200.863281 224.058594 204.382812 222.921875 207.941406 C 221.949219 210.976562 221.394531 214.035156 221.265625 217.054688 L 239.601562 217.054688 C 239.679688 215.027344 239.929688 212.933594 240.347656 210.8125 C 240.851562 208.238281 241.53125 205.636719 242.367188 203.074219 C 243.195312 200.527344 244.234375 197.882812 245.441406 195.21875 C 246.648438 192.566406 248.113281 189.5625 249.796875 186.292969 C 251.457031 183.070312 253.863281 179.046875 256.953125 174.332031 L 256.953125 165.527344 L 212.878906 165.527344 L 212.878906 182.714844 L 225.777344 182.714844 Z M 224.390625 177.679688 L 224.390625 181.328125 L 214.265625 181.328125 L 214.265625 166.914062 L 255.566406 166.914062 L 255.566406 173.921875 C 254.816406 175.070312 254.105469 176.179688 253.4375 177.25 C 252.433594 178.851562 251.523438 180.355469 250.710938 181.757812 C 250.292969 182.484375 249.90625 183.171875 249.535156 183.839844 C 249.195312 184.46875 248.867188 185.078125 248.570312 185.652344 C 246.871094 188.945312 245.394531 191.96875 244.183594 194.644531 C 243.875 195.324219 243.578125 196 243.292969 196.671875 C 243.007812 197.347656 242.734375 198.019531 242.472656 198.6875 C 241.949219 200.023438 241.472656 201.34375 241.050781 202.640625 C 240.625 203.949219 240.238281 205.265625 239.890625 206.585938 C 239.546875 207.90625 239.246094 209.230469 238.988281 210.542969 C 238.816406 211.410156 238.675781 212.269531 238.558594 213.125 C 238.441406 213.980469 238.355469 214.828125 238.292969 215.667969 L 222.742188 215.667969 C 222.960938 213.242188 223.460938 210.796875 224.238281 208.367188 C 224.519531 207.496094 224.816406 206.625 225.132812 205.761719 C 225.453125 204.894531 225.789062 204.035156 226.144531 203.175781 C 226.855469 201.464844 227.644531 199.773438 228.5 198.117188 C 228.703125 197.722656 228.917969 197.328125 229.128906 196.9375 C 230.261719 194.800781 231.464844 192.675781 232.746094 190.582031 C 233.253906 189.757812 233.769531 188.9375 234.292969 188.121094 C 234.820312 187.304688 235.347656 186.511719 235.867188 185.734375 C 236.910156 184.1875 237.941406 182.726562 238.953125 181.363281 C 239.457031 180.683594 239.957031 180.023438 240.453125 179.394531 L 243.960938 174.90625 L 224.390625 174.90625 L 224.390625 177.679688 " fill-opacity="1" fill-rule="nonzero"/><path fill="#ffffff" d="M 211.496094 184.101562 L 227.160156 184.101562 L 227.160156 177.679688 L 238.273438 177.679688 C 237 179.308594 235.699219 181.082031 234.378906 183.003906 C 233.585938 184.15625 232.78125 185.359375 231.972656 186.613281 C 231.429688 187.453125 230.902344 188.292969 230.382812 189.136719 C 228.832031 191.671875 227.382812 194.242188 226.042969 196.839844 C 224.25 200.308594 222.769531 203.867188 221.605469 207.519531 C 220.433594 211.171875 219.851562 214.8125 219.851562 218.441406 L 240.957031 218.441406 C 240.957031 217.847656 240.972656 217.25 241.003906 216.648438 C 241.035156 216.042969 241.082031 215.433594 241.144531 214.820312 C 241.269531 213.59375 241.457031 212.347656 241.703125 211.078125 C 242.199219 208.542969 242.859375 206.019531 243.679688 203.507812 C 244.5 200.992188 245.507812 198.421875 246.703125 195.792969 C 247.894531 193.164062 249.335938 190.207031 251.027344 186.929688 C 252.71875 183.648438 255.15625 179.589844 258.335938 174.75 L 258.335938 164.140625 L 211.496094 164.140625 Z M 212.878906 165.527344 L 256.953125 165.527344 L 256.953125 174.332031 C 253.863281 179.046875 251.457031 183.070312 249.796875 186.292969 C 248.113281 189.5625 246.648438 192.566406 245.441406 195.21875 C 244.234375 197.882812 243.195312 200.527344 242.367188 203.074219 C 241.53125 205.636719 240.851562 208.238281 240.347656 210.8125 C 239.929688 212.933594 239.679688 215.027344 239.601562 217.054688 L 221.265625 217.054688 C 221.394531 214.035156 221.949219 210.976562 222.921875 207.941406 C 224.058594 204.382812 225.523438 200.863281 227.269531 197.476562 C 229.035156 194.0625 231.007812 190.660156 233.132812 187.367188 C 235.261719 184.070312 237.359375 181.097656 239.363281 178.535156 L 241.117188 176.292969 L 225.777344 176.292969 L 225.777344 182.714844 L 212.878906 182.714844 L 212.878906 165.527344 " fill-opacity="1" fill-rule="nonzero"/><path fill="#a80000" d="M 241.855469 179.097656 L 241.175781 179.964844 C 239.21875 182.46875 237.160156 185.382812 235.070312 188.625 C 232.984375 191.855469 231.046875 195.191406 229.320312 198.542969 C 227.628906 201.8125 226.214844 205.210938 225.117188 208.648438 C 224.472656 210.671875 224.019531 212.714844 223.769531 214.742188 L 237.445312 214.742188 C 237.582031 213.300781 237.796875 211.835938 238.082031 210.363281 C 238.605469 207.699219 239.308594 205.003906 240.171875 202.355469 C 241.03125 199.726562 242.097656 197.003906 243.339844 194.261719 C 244.5625 191.574219 246.046875 188.53125 247.75 185.230469 C 249.238281 182.339844 251.304688 178.832031 253.90625 174.785156 C 250.148438 176.273438 246.105469 177.71875 241.855469 179.097656 " fill-opacity="1" fill-rule="nonzero"/><g clip-path="url(#59250f6b16)"><path fill="#373737" d="M 214.742188 150.148438 L 155.78125 150.148438 L 155.78125 182.074219 L 178.03125 182.074219 C 176.324219 184.894531 174.71875 187.757812 173.234375 190.636719 C 171.042969 194.878906 169.207031 199.296875 167.78125 203.761719 C 166.285156 208.429688 165.53125 213.160156 165.53125 217.824219 L 165.53125 222.140625 L 198.769531 222.140625 L 198.769531 217.824219 C 198.769531 215.347656 199.035156 212.734375 199.558594 210.066406 C 200.101562 207.296875 200.832031 204.496094 201.730469 201.742188 C 202.636719 198.976562 203.765625 196.097656 205.085938 193.1875 C 206.449219 190.179688 208.117188 186.765625 210.039062 183.039062 C 211.925781 179.371094 214.71875 174.722656 218.335938 169.21875 L 219.046875 168.140625 L 219.046875 150.148438 Z M 214.742188 166.84375 C 211.027344 172.492188 208.183594 177.226562 206.214844 181.054688 C 204.238281 184.882812 202.558594 188.332031 201.164062 191.398438 C 199.773438 194.464844 198.597656 197.464844 197.640625 200.398438 C 196.683594 203.328125 195.914062 206.273438 195.332031 209.234375 C 195.042969 210.714844 194.824219 212.167969 194.679688 213.601562 C 194.609375 214.316406 194.554688 215.027344 194.519531 215.730469 C 194.480469 216.433594 194.464844 217.132812 194.464844 217.824219 L 169.835938 217.824219 C 169.835938 213.589844 170.515625 209.34375 171.878906 205.082031 C 173.242188 200.816406 174.96875 196.664062 177.058594 192.621094 C 178.625 189.585938 180.3125 186.589844 182.125 183.632812 C 182.726562 182.648438 183.347656 181.667969 183.976562 180.6875 C 184.925781 179.222656 185.859375 177.820312 186.785156 176.476562 C 188.328125 174.234375 189.84375 172.164062 191.332031 170.265625 L 178.363281 170.265625 L 178.363281 177.757812 L 160.089844 177.757812 L 160.089844 154.464844 L 214.742188 154.464844 L 214.742188 166.84375 " fill-opacity="1" fill-rule="nonzero"/></g><path fill="#ff0000" d="M 191.332031 167.027344 L 197.96875 167.027344 L 193.871094 172.261719 C 191.5625 175.210938 189.148438 178.640625 186.6875 182.449219 C 184.234375 186.25 181.960938 190.171875 179.925781 194.109375 C 177.929688 197.980469 176.257812 202.003906 174.957031 206.066406 C 174.050781 208.90625 173.464844 211.757812 173.210938 214.589844 L 191.355469 214.589844 C 191.496094 212.628906 191.769531 210.628906 192.164062 208.609375 C 192.765625 205.542969 193.574219 202.441406 194.570312 199.390625 C 195.5625 196.363281 196.789062 193.222656 198.226562 190.058594 C 199.644531 186.9375 201.363281 183.410156 203.34375 179.570312 C 205.257812 175.855469 208.003906 171.25 211.511719 165.875 L 211.511719 157.703125 L 163.320312 157.703125 L 163.320312 174.519531 L 175.132812 174.519531 L 175.132812 167.027344 Z M 174.410156 213.507812 C 174.699219 211.144531 175.226562 208.757812 175.980469 206.398438 C 177.261719 202.390625 178.914062 198.421875 180.882812 194.605469 C 181.269531 193.859375 181.679688 193.078125 182.117188 192.277344 C 187.136719 191.601562 192.15625 190.835938 197.074219 189.992188 C 195.695312 193.0625 194.511719 196.109375 193.546875 199.054688 C 192.539062 202.144531 191.71875 205.289062 191.109375 208.402344 C 190.773438 210.113281 190.523438 211.828125 190.363281 213.507812 L 174.410156 213.507812 " fill-opacity="1" fill-rule="nonzero"/><path fill="#373737" d="M 176.75 170.265625 L 176.75 168.648438 L 194.648438 168.648438 L 192.601562 171.265625 C 190.261719 174.253906 187.820312 177.71875 185.332031 181.570312 C 182.851562 185.410156 180.550781 189.378906 178.492188 193.363281 C 176.453125 197.316406 174.746094 201.421875 173.417969 205.574219 C 172.285156 209.113281 171.636719 212.683594 171.484375 216.207031 L 192.878906 216.207031 C 192.972656 213.839844 193.261719 211.398438 193.75 208.921875 C 194.335938 205.917969 195.132812 202.882812 196.105469 199.894531 C 197.074219 196.921875 198.285156 193.835938 199.695312 190.730469 C 201.101562 187.632812 202.8125 184.128906 204.777344 180.3125 C 206.714844 176.554688 209.523438 171.859375 213.125 166.359375 L 213.125 156.085938 L 161.703125 156.085938 L 161.703125 176.136719 L 176.75 176.136719 Z M 175.132812 170.265625 L 175.132812 174.519531 L 163.320312 174.519531 L 163.320312 157.703125 L 211.511719 157.703125 L 211.511719 165.875 C 208.003906 171.25 205.257812 175.855469 203.34375 179.570312 C 201.363281 183.410156 199.644531 186.9375 198.226562 190.058594 C 196.789062 193.222656 195.5625 196.363281 194.570312 199.390625 C 193.574219 202.441406 192.765625 205.542969 192.164062 208.609375 C 191.769531 210.628906 191.496094 212.628906 191.355469 214.589844 L 173.210938 214.589844 C 173.464844 211.757812 174.050781 208.90625 174.957031 206.066406 C 176.257812 202.003906 177.929688 197.980469 179.925781 194.109375 C 181.960938 190.171875 184.234375 186.25 186.6875 182.449219 C 189.148438 178.640625 191.5625 175.210938 193.871094 172.261719 L 197.96875 167.027344 L 175.132812 167.027344 L 175.132812 170.265625 " fill-opacity="1" fill-rule="nonzero"/><path fill="#ffffff" d="M 160.089844 177.757812 L 178.363281 177.757812 L 178.363281 170.265625 L 191.332031 170.265625 C 189.84375 172.164062 188.328125 174.234375 186.785156 176.476562 C 185.859375 177.820312 184.925781 179.222656 183.976562 180.6875 C 183.347656 181.667969 182.726562 182.648438 182.125 183.632812 C 180.3125 186.589844 178.625 189.585938 177.058594 192.621094 C 174.96875 196.664062 173.242188 200.816406 171.878906 205.082031 C 170.515625 209.34375 169.835938 213.589844 169.835938 217.824219 L 194.464844 217.824219 C 194.464844 217.132812 194.480469 216.433594 194.519531 215.730469 C 194.554688 215.027344 194.609375 214.316406 194.679688 213.601562 C 194.824219 212.167969 195.042969 210.714844 195.332031 209.234375 C 195.914062 206.273438 196.683594 203.328125 197.640625 200.398438 C 198.597656 197.464844 199.773438 194.464844 201.164062 191.398438 C 202.558594 188.332031 204.238281 184.882812 206.214844 181.054688 C 208.183594 177.226562 211.027344 172.492188 214.742188 166.84375 L 214.742188 154.464844 L 160.089844 154.464844 Z M 161.703125 156.085938 L 213.125 156.085938 L 213.125 166.359375 C 209.523438 171.859375 206.714844 176.554688 204.777344 180.3125 C 202.8125 184.128906 201.101562 187.632812 199.695312 190.730469 C 198.285156 193.835938 197.074219 196.921875 196.105469 199.894531 C 195.132812 202.882812 194.335938 205.917969 193.75 208.921875 C 193.261719 211.398438 192.972656 213.839844 192.878906 216.207031 L 171.484375 216.207031 C 171.636719 212.683594 172.285156 209.113281 173.417969 205.574219 C 174.746094 201.421875 176.453125 197.316406 178.492188 193.363281 C 180.550781 189.378906 182.851562 185.410156 185.332031 181.570312 C 187.820312 177.71875 190.261719 174.253906 192.601562 171.265625 L 194.648438 168.648438 L 176.75 168.648438 L 176.75 176.136719 L 161.703125 176.136719 L 161.703125 156.085938 " fill-opacity="1" fill-rule="nonzero"/><path fill="#a80000" d="M 193.546875 199.054688 C 194.511719 196.109375 195.695312 193.0625 197.074219 189.992188 C 192.15625 190.835938 187.136719 191.601562 182.117188 192.277344 C 181.679688 193.078125 181.269531 193.859375 180.882812 194.605469 C 178.914062 198.421875 177.261719 202.390625 175.980469 206.398438 C 175.226562 208.757812 174.699219 211.144531 174.410156 213.507812 L 190.363281 213.507812 C 190.523438 211.828125 190.773438 210.113281 191.109375 208.402344 C 191.71875 205.289062 192.539062 202.144531 193.546875 199.054688 " fill-opacity="1" fill-rule="nonzero"/><path stroke-linecap="butt" transform="matrix(1.218785, 0, 0, 1.218785, 1.160288, 215.22901)" fill="none" stroke-linejoin="miter" d="M 56.180984 15.196277 L 76.795781 15.196277 C 77.388713 15.196277 77.686782 15.49755 77.686782 16.100097 L 77.686782 21.692887 C 77.686782 22.292229 77.388713 22.593502 76.795781 22.593502 L 70.302377 22.593502 L 70.302377 59.098872 C 70.302377 59.698214 70.001103 59.999488 69.401761 59.999488 L 63.575004 59.999488 C 62.985277 59.999488 62.687209 59.698214 62.687209 59.098872 L 62.687209 22.593502 L 56.180984 22.593502 C 55.588052 22.593502 55.289984 22.292229 55.289984 21.692887 L 55.289984 16.100097 C 55.289984 15.49755 55.588052 15.196277 56.180984 15.196277 Z M 84.077625 51.93241 L 84.077625 23.263355 C 84.077625 20.612789 84.763503 18.606436 86.141669 17.247501 C 87.526245 15.882155 89.526188 15.196277 92.141498 15.196277 L 99.525903 15.196277 C 102.141213 15.196277 104.137951 15.882155 105.512912 17.247501 C 106.897488 18.606436 107.592981 20.612789 107.592981 23.263355 L 107.592981 29.086907 C 107.592981 29.689454 107.294913 29.990727 106.701981 29.990727 L 101.096371 29.990727 C 100.497029 29.990727 100.195756 29.689454 100.195756 29.086907 L 100.195756 24.837028 C 100.195756 23.340276 99.452187 22.593502 97.968255 22.593502 L 93.933114 22.593502 C 92.439566 22.593502 91.692793 23.340276 91.692793 24.837028 L 91.692793 50.361942 C 91.692793 51.855489 92.439566 52.602263 93.933114 52.602263 L 97.968255 52.602263 C 99.452187 52.602263 100.195756 51.855489 100.195756 50.361942 L 100.195756 42.868566 L 97.282377 42.868566 C 96.689445 42.868566 96.394582 42.567292 96.394582 41.96795 L 96.394582 36.362341 C 96.394582 35.769409 96.689445 35.47134 97.282377 35.47134 L 106.701981 35.47134 C 107.294913 35.47134 107.592981 35.769409 107.592981 36.362341 L 107.592981 51.93241 C 107.592981 54.550925 106.897488 56.550868 105.512912 57.935444 C 104.137951 59.310405 102.141213 59.999488 99.525903 59.999488 L 92.141498 59.999488 C 89.526188 59.999488 87.526245 59.310405 86.141669 57.935444 C 84.763503 56.550868 84.077625 54.550925 84.077625 51.93241 Z M 138.505562 15.196277 L 145.902787 15.196277 C 146.649561 15.196277 147.02455 15.571266 147.02455 16.31804 L 147.02455 58.877725 C 147.02455 59.627703 146.649561 59.999488 145.902787 59.999488 L 140.694602 59.999488 C 139.947828 59.999488 139.572839 59.627703 139.572839 58.877725 L 139.572839 33.68293 L 139.175415 33.68293 L 133.640316 58.986696 C 133.483269 59.662959 133.069819 59.999488 132.393556 59.999488 L 129.65966 59.999488 C 129.021858 59.999488 128.611613 59.662959 128.428926 58.986696 L 122.877802 33.68293 L 122.483582 33.68293 L 122.483582 58.877725 C 122.483582 59.627703 122.115003 59.999488 121.37464 59.999488 L 116.22094 59.999488 C 115.474167 59.999488 115.099177 59.627703 115.099177 58.877725 L 115.099177 16.31804 C 115.099177 15.571266 115.474167 15.196277 116.22094 15.196277 L 123.605345 15.196277 C 124.278403 15.196277 124.691853 15.536011 124.8489 16.209069 L 131.053851 44.0993 L 137.274828 16.209069 C 137.457515 15.536011 137.86776 15.196277 138.505562 15.196277 Z M 154.524336 58.877725 L 154.524336 53.724026 C 154.524336 52.977252 154.899326 52.602263 155.646099 52.602263 L 160.732493 52.602263 C 161.479266 52.602263 161.851051 52.977252 161.851051 53.724026 L 161.851051 58.877725 C 161.851051 59.627703 161.479266 59.999488 160.732493 59.999488 L 155.646099 59.999488 C 154.899326 59.999488 154.524336 59.627703 154.524336 58.877725 Z M 191.811736 23.263355 L 191.811736 33.570753 C 191.811736 34.61239 191.475207 35.487366 190.802149 36.195679 C 190.135501 36.907197 189.298987 37.359107 188.286195 37.551409 L 188.286195 37.660381 C 189.298987 37.804607 190.135501 38.243697 190.802149 38.971241 C 191.475207 39.701989 191.811736 40.589784 191.811736 41.637831 L 191.811736 51.93241 C 191.811736 54.550925 191.119448 56.550868 189.734872 57.935444 C 188.359911 59.310405 186.343943 59.999488 183.693377 59.999488 L 170.251452 59.999488 C 169.661726 59.999488 169.363657 59.698214 169.363657 59.098872 L 169.363657 16.100097 C 169.363657 15.49755 169.661726 15.196277 170.251452 15.196277 L 183.693377 15.196277 C 186.343943 15.196277 188.359911 15.882155 189.734872 17.247501 C 191.119448 18.606436 191.811736 20.612789 191.811736 23.263355 Z M 184.37605 31.727857 L 184.37605 24.837028 C 184.37605 23.340276 183.629276 22.593502 182.132524 22.593502 L 177.03331 22.593502 L 177.03331 33.900872 L 182.132524 33.900872 C 183.629276 33.900872 184.37605 33.176534 184.37605 31.727857 Z M 184.37605 50.361942 L 184.37605 43.538418 C 184.37605 42.044871 183.629276 41.298097 182.132524 41.298097 L 177.03331 41.298097 L 177.03331 52.602263 L 182.132524 52.602263 C 183.629276 52.602263 184.37605 51.855489 184.37605 50.361942 Z M 221.663449 16.100097 L 221.663449 21.692887 C 221.663449 22.330689 221.368586 22.647988 220.775654 22.647988 L 206.776053 22.647988 L 206.776053 33.846387 L 217.468056 33.846387 C 218.057783 33.846387 218.355851 34.163685 218.355851 34.801488 L 218.355851 40.339791 C 218.355851 40.977594 218.057783 41.298097 217.468056 41.298097 L 206.776053 41.298097 L 206.776053 52.602263 L 220.775654 52.602263 C 221.368586 52.602263 221.663449 52.903536 221.663449 53.506083 L 221.663449 59.098872 C 221.663449 59.698214 221.368586 59.999488 220.775654 59.999488 L 200.157652 59.999488 C 199.60318 59.999488 199.324342 59.698214 199.324342 59.098872 L 199.324342 16.100097 C 199.324342 15.49755 199.60318 15.196277 200.157652 15.196277 L 220.775654 15.196277 C 221.368586 15.196277 221.663449 15.49755 221.663449 16.100097 Z M 228.938883 15.196277 L 249.556885 15.196277 C 250.149817 15.196277 250.444681 15.49755 250.444681 16.100097 L 250.444681 21.692887 C 250.444681 22.292229 250.149817 22.593502 249.556885 22.593502 L 243.063481 22.593502 L 243.063481 59.098872 C 243.063481 59.698214 242.762207 59.999488 242.15966 59.999488 L 236.336108 59.999488 C 235.743176 59.999488 235.448313 59.698214 235.448313 59.098872 L 235.448313 22.593502 L 228.938883 22.593502 C 228.345951 22.593502 228.051088 22.292229 228.051088 21.692887 L 228.051088 16.100097 C 228.051088 15.49755 228.345951 15.196277 228.938883 15.196277 Z M 228.938883 15.196277 " stroke="#540000" stroke-width="4.2" stroke-opacity="1" stroke-miterlimit="4"/><g fill="#ed1b1c" fill-opacity="1"><g transform="translate(66.498575, 288.356093)"><g><path d="M 3.140625 -54.59375 L 28.25 -54.59375 C 28.976562 -54.59375 29.34375 -54.234375 29.34375 -53.515625 L 29.34375 -46.6875 C 29.34375 -45.957031 28.976562 -45.59375 28.25 -45.59375 L 20.34375 -45.59375 L 20.34375 -1.09375 C 20.34375 -0.363281 19.976562 0 19.25 0 L 12.15625 0 C 11.425781 0 11.0625 -0.363281 11.0625 -1.09375 L 11.0625 -45.59375 L 3.140625 -45.59375 C 2.410156 -45.59375 2.046875 -45.957031 2.046875 -46.6875 L 2.046875 -53.515625 C 2.046875 -54.234375 2.410156 -54.59375 3.140625 -54.59375 Z M 3.140625 -54.59375 "/></g></g></g><g fill="#ed1b1c" fill-opacity="1"><g transform="translate(100.215028, 288.356093)"><g><path d="M 3.40625 -9.828125 L 3.40625 -44.765625 C 3.40625 -48.003906 4.25 -50.453125 5.9375 -52.109375 C 7.625 -53.765625 10.054688 -54.59375 13.234375 -54.59375 L 22.25 -54.59375 C 25.4375 -54.59375 27.867188 -53.765625 29.546875 -52.109375 C 31.234375 -50.453125 32.078125 -48.003906 32.078125 -44.765625 L 32.078125 -37.671875 C 32.078125 -36.941406 31.710938 -36.578125 30.984375 -36.578125 L 24.15625 -36.578125 C 23.425781 -36.578125 23.0625 -36.941406 23.0625 -37.671875 L 23.0625 -42.859375 C 23.0625 -44.679688 22.15625 -45.59375 20.34375 -45.59375 L 15.421875 -45.59375 C 13.597656 -45.59375 12.6875 -44.679688 12.6875 -42.859375 L 12.6875 -11.734375 C 12.6875 -9.921875 13.597656 -9.015625 15.421875 -9.015625 L 20.34375 -9.015625 C 22.15625 -9.015625 23.0625 -9.921875 23.0625 -11.734375 L 23.0625 -20.890625 L 19.515625 -20.890625 C 18.785156 -20.890625 18.421875 -21.25 18.421875 -21.96875 L 18.421875 -28.796875 C 18.421875 -29.523438 18.785156 -29.890625 19.515625 -29.890625 L 30.984375 -29.890625 C 31.710938 -29.890625 32.078125 -29.523438 32.078125 -28.796875 L 32.078125 -9.828125 C 32.078125 -6.640625 31.234375 -4.203125 29.546875 -2.515625 C 27.867188 -0.835938 25.4375 0 22.25 0 L 13.234375 0 C 10.054688 0 7.625 -0.835938 5.9375 -2.515625 C 4.25 -4.203125 3.40625 -6.640625 3.40625 -9.828125 Z M 3.40625 -9.828125 "/></g></g></g><g fill="#ed1b1c" fill-opacity="1"><g transform="translate(138.026598, 288.356093)"><g><path d="M 31.9375 -54.59375 L 40.953125 -54.59375 C 41.859375 -54.59375 42.3125 -54.140625 42.3125 -53.234375 L 42.3125 -1.359375 C 42.3125 -0.453125 41.859375 0 40.953125 0 L 34.609375 0 C 33.691406 0 33.234375 -0.453125 33.234375 -1.359375 L 33.234375 -32.078125 L 32.765625 -32.078125 L 26 -1.234375 C 25.820312 -0.410156 25.320312 0 24.5 0 L 21.15625 0 C 20.382812 0 19.882812 -0.410156 19.65625 -1.234375 L 12.90625 -32.078125 L 12.421875 -32.078125 L 12.421875 -1.359375 C 12.421875 -0.453125 11.96875 0 11.0625 0 L 4.78125 0 C 3.863281 0 3.40625 -0.453125 3.40625 -1.359375 L 3.40625 -53.234375 C 3.40625 -54.140625 3.863281 -54.59375 4.78125 -54.59375 L 13.78125 -54.59375 C 14.601562 -54.59375 15.101562 -54.1875 15.28125 -53.375 L 22.859375 -19.390625 L 30.4375 -53.375 C 30.664062 -54.1875 31.164062 -54.59375 31.9375 -54.59375 Z M 31.9375 -54.59375 "/></g></g></g><g fill="#ed1b1c" fill-opacity="1"><g transform="translate(186.075952, 288.356093)"><g><path d="M 3.40625 -1.359375 L 3.40625 -7.640625 C 3.40625 -8.554688 3.863281 -9.015625 4.78125 -9.015625 L 10.984375 -9.015625 C 11.898438 -9.015625 12.359375 -8.554688 12.359375 -7.640625 L 12.359375 -1.359375 C 12.359375 -0.453125 11.898438 0 10.984375 0 L 4.78125 0 C 3.863281 0 3.40625 -0.453125 3.40625 -1.359375 Z M 3.40625 -1.359375 "/></g></g></g><g fill="#ed1b1c" fill-opacity="1"><g transform="translate(204.162722, 288.356093)"><g><path d="M 30.78125 -44.765625 L 30.78125 -32.21875 C 30.78125 -30.9375 30.367188 -29.863281 29.546875 -29 C 28.734375 -28.132812 27.710938 -27.59375 26.484375 -27.375 L 26.484375 -27.234375 C 27.710938 -27.046875 28.734375 -26.507812 29.546875 -25.625 C 30.367188 -24.738281 30.78125 -23.660156 30.78125 -22.390625 L 30.78125 -9.828125 C 30.78125 -6.640625 29.9375 -4.203125 28.25 -2.515625 C 26.570312 -0.835938 24.117188 0 20.890625 0 L 4.5 0 C 3.769531 0 3.40625 -0.363281 3.40625 -1.09375 L 3.40625 -53.515625 C 3.40625 -54.234375 3.769531 -54.59375 4.5 -54.59375 L 20.890625 -54.59375 C 24.117188 -54.59375 26.570312 -53.765625 28.25 -52.109375 C 29.9375 -50.453125 30.78125 -48.003906 30.78125 -44.765625 Z M 21.703125 -34.46875 L 21.703125 -42.859375 C 21.703125 -44.679688 20.789062 -45.59375 18.96875 -45.59375 L 12.765625 -45.59375 L 12.765625 -31.796875 L 18.96875 -31.796875 C 20.789062 -31.796875 21.703125 -32.6875 21.703125 -34.46875 Z M 21.703125 -11.734375 L 21.703125 -20.0625 C 21.703125 -21.882812 20.789062 -22.796875 18.96875 -22.796875 L 12.765625 -22.796875 L 12.765625 -9.015625 L 18.96875 -9.015625 C 20.789062 -9.015625 21.703125 -9.921875 21.703125 -11.734375 Z M 21.703125 -11.734375 "/></g></g></g><g fill="#ed1b1c" fill-opacity="1"><g transform="translate(240.677521, 288.356093)"><g><path d="M 30.640625 -53.515625 L 30.640625 -46.6875 C 30.640625 -45.90625 30.273438 -45.515625 29.546875 -45.515625 L 12.484375 -45.515625 L 12.484375 -31.875 L 25.53125 -31.875 C 26.257812 -31.875 26.625 -31.488281 26.625 -30.71875 L 26.625 -23.953125 C 26.625 -23.179688 26.257812 -22.796875 25.53125 -22.796875 L 12.484375 -22.796875 L 12.484375 -9.015625 L 29.546875 -9.015625 C 30.273438 -9.015625 30.640625 -8.648438 30.640625 -7.921875 L 30.640625 -1.09375 C 30.640625 -0.363281 30.273438 0 29.546875 0 L 4.4375 0 C 3.75 0 3.40625 -0.363281 3.40625 -1.09375 L 3.40625 -53.515625 C 3.40625 -54.234375 3.75 -54.59375 4.4375 -54.59375 L 29.546875 -54.59375 C 30.273438 -54.59375 30.640625 -54.234375 30.640625 -53.515625 Z M 30.640625 -53.515625 "/></g></g></g><g fill="#ed1b1c" fill-opacity="1"><g transform="translate(277.055797, 288.356093)"><g><path d="M 3.140625 -54.59375 L 28.25 -54.59375 C 28.976562 -54.59375 29.34375 -54.234375 29.34375 -53.515625 L 29.34375 -46.6875 C 29.34375 -45.957031 28.976562 -45.59375 28.25 -45.59375 L 20.34375 -45.59375 L 20.34375 -1.09375 C 20.34375 -0.363281 19.976562 0 19.25 0 L 12.15625 0 C 11.425781 0 11.0625 -0.363281 11.0625 -1.09375 L 11.0625 -45.59375 L 3.140625 -45.59375 C 2.410156 -45.59375 2.046875 -45.957031 2.046875 -46.6875 L 2.046875 -53.515625 C 2.046875 -54.234375 2.410156 -54.59375 3.140625 -54.59375 Z M 3.140625 -54.59375 "/></g></g></g><path stroke-linecap="butt" transform="matrix(1.218785, 0, 0, 1.218785, 26.963239, 298.512753)" fill="none" stroke-linejoin="miter" d="M 60.890608 15.149361 C 59.756025 15.158976 58.775283 14.953853 57.954794 14.540404 C 57.1311 14.123749 56.506117 13.527612 56.070232 12.745583 C 55.634347 11.963554 55.416405 11.024478 55.416405 9.925151 C 55.416405 8.796978 55.653578 7.813031 56.127923 6.970107 C 56.602268 6.130387 57.265711 5.479764 58.118251 5.015034 C 58.967586 4.550304 59.961147 4.316336 61.098935 4.316336 C 62.137367 4.316336 63.044393 4.534278 63.823217 4.966958 C 64.602041 5.402843 65.204588 6.008595 65.634062 6.787419 C 66.063537 7.563038 66.278275 8.476474 66.278275 9.524521 C 66.278275 10.630259 66.053922 11.607795 65.602012 12.45072 C 65.153307 13.290439 64.521915 13.947472 63.71104 14.425022 C 62.900166 14.896163 61.96109 15.139746 60.890608 15.149361 Z M 60.820097 12.550076 C 61.579691 12.550076 62.182238 12.280853 62.627738 11.742406 C 63.073238 11.20396 63.297591 10.486032 63.297591 9.582212 C 63.297591 8.771337 63.086058 8.12392 62.662993 7.643164 C 62.243133 7.155999 61.682252 6.912416 60.983554 6.912416 C 60.467543 6.912416 60.018838 7.040617 59.631028 7.293815 C 59.246424 7.543808 58.94515 7.889952 58.733618 8.329042 C 58.518881 8.768132 58.413114 9.277733 58.413114 9.851435 C 58.413114 10.700769 58.627852 11.364212 59.050917 11.841763 C 59.477187 12.312903 60.066913 12.550076 60.820097 12.550076 Z M 77.265141 4.463768 L 80.117624 4.463768 L 80.117624 14.998724 L 77.476674 14.998724 L 73.393457 9.329014 L 73.393457 14.998724 L 70.544179 14.998724 L 70.544179 4.463768 L 73.185129 4.463768 L 77.265141 10.117453 Z M 84.870694 14.998724 L 84.870694 4.463768 L 87.838558 4.463768 L 87.838558 12.415464 L 92.229459 12.415464 L 92.053182 14.998724 Z M 96.040248 14.998724 L 96.040248 4.463768 L 99.008112 4.463768 L 99.008112 14.998724 Z M 110.488554 4.463768 L 113.341037 4.463768 L 113.341037 14.998724 L 110.700086 14.998724 L 106.616869 9.329014 L 106.616869 14.998724 L 103.767591 14.998724 L 103.767591 4.463768 L 106.411747 4.463768 L 110.488554 10.117453 Z M 125.779785 6.998952 L 121.020305 6.998952 L 121.020305 8.441218 L 125.39518 8.441218 L 125.39518 10.979608 L 121.020305 10.979608 L 121.020305 12.46354 L 125.898371 12.46354 L 125.722094 14.998724 L 118.097311 14.998724 L 118.097311 4.463768 L 125.779785 4.463768 Z M 146.442658 12.905835 C 145.990748 13.626968 145.365765 14.184645 144.574121 14.575659 C 143.785682 14.966674 142.904297 15.162181 141.933171 15.162181 C 140.747307 15.162181 139.731311 14.953853 138.881976 14.540404 C 138.035846 14.123749 137.391634 13.527612 136.949339 12.745583 C 136.503838 11.963554 136.282691 11.034093 136.282691 9.953996 C 136.282691 8.816208 136.526274 7.825851 137.013439 6.986132 C 137.50381 6.146412 138.189688 5.489379 139.067868 5.021444 C 139.949253 4.550304 140.974865 4.316336 142.144703 4.316336 C 143.170315 4.316336 144.035675 4.495818 144.737578 4.857987 C 145.439481 5.220156 146.013183 5.774628 146.458683 6.524606 L 144.218362 8.1111 C 144.03247 7.74893 143.737607 7.460477 143.343387 7.24574 C 142.945963 7.034207 142.513283 6.928441 142.038937 6.928441 C 141.167167 6.918826 140.490904 7.188049 140.010149 7.73611 C 139.532598 8.284172 139.29222 8.998895 139.29222 9.88028 C 139.29222 10.72 139.513368 11.377032 139.952458 11.848173 C 140.394753 12.316108 141.058196 12.550076 141.949196 12.550076 C 142.978013 12.550076 143.747222 12.107781 144.263233 11.21678 Z M 148.557982 14.998724 L 153.202081 4.463768 L 155.666754 4.463768 L 160.147396 14.998724 L 157.153891 14.998724 L 156.410323 13.117367 L 152.330311 13.117367 L 151.557897 14.998724 Z M 153.336692 10.665514 L 155.432786 10.665514 L 154.407175 8.082254 Z M 167.044635 15.149361 C 165.71775 15.149361 164.682523 14.867317 163.938954 14.303231 C 163.198591 13.739144 162.775526 12.918655 162.67617 11.841763 L 165.422886 11.437928 C 165.442117 11.816122 165.608778 12.120601 165.919667 12.351363 C 166.230556 12.582126 166.63439 12.700712 167.131171 12.700712 C 168.041401 12.700712 168.496517 12.46354 168.496517 11.989194 C 168.496517 11.768047 168.368315 11.59177 168.115117 11.460363 C 167.865124 11.328957 167.451675 11.19114 166.881178 11.050118 C 165.653649 10.755255 164.753034 10.361036 164.176127 9.86746 C 163.60563 9.370679 163.323587 8.671981 163.333202 7.771366 C 163.342817 7.091898 163.522299 6.489351 163.874854 5.970135 C 164.227408 5.450919 164.720983 5.047084 165.358786 4.755426 C 165.996588 4.460563 166.746567 4.316336 167.605516 4.316336 C 168.666384 4.316336 169.538154 4.582354 170.224032 5.117595 C 170.913115 5.649631 171.307334 6.377175 171.40669 7.29702 L 168.807405 7.74252 C 168.75933 7.454067 168.608693 7.220099 168.355495 7.040617 C 168.102297 6.85793 167.801024 6.764984 167.44206 6.764984 C 167.105531 6.764984 166.836308 6.83229 166.63439 6.963696 C 166.432473 7.098308 166.329912 7.27779 166.329912 7.508553 C 166.329912 7.713675 166.432473 7.896362 166.63439 8.050204 C 166.836308 8.204046 167.220912 8.348272 167.784999 8.486089 C 168.595873 8.684801 169.275341 8.909154 169.823402 9.162352 C 170.374668 9.41555 170.788118 9.739258 171.070161 10.133478 C 171.352205 10.527697 171.493226 11.046913 171.493226 11.691126 C 171.493226 12.373799 171.307334 12.973141 170.93555 13.492357 C 170.563766 14.011573 170.04455 14.418612 169.377902 14.710271 C 168.711254 15.001929 167.93243 15.149361 167.044635 15.149361 Z M 175.570033 14.998724 L 175.570033 4.463768 L 178.537897 4.463768 L 178.537897 14.998724 Z M 190.018339 4.463768 L 192.870822 4.463768 L 192.870822 14.998724 L 190.229872 14.998724 L 186.146655 9.329014 L 186.146655 14.998724 L 183.297377 14.998724 L 183.297377 4.463768 L 185.938328 4.463768 L 190.018339 10.117453 Z M 202.610929 15.149361 C 201.473141 15.158976 200.4924 14.953853 199.671911 14.540404 C 198.851421 14.123749 198.223234 13.527612 197.787349 12.745583 C 197.354669 11.963554 197.136726 11.024478 197.136726 9.925151 C 197.136726 8.796978 197.373899 7.813031 197.84504 6.970107 C 198.32259 6.130387 198.986033 5.479764 199.835368 5.015034 C 200.684702 4.550304 201.678264 4.316336 202.816052 4.316336 C 203.854484 4.316336 204.764714 4.534278 205.540333 4.966958 C 206.319157 5.402843 206.921704 6.008595 207.351179 6.787419 C 207.783859 7.563038 207.998597 8.476474 207.998597 9.524521 C 207.998597 10.630259 207.771039 11.607795 207.319129 12.45072 C 206.870424 13.290439 206.239031 13.947472 205.428157 14.425022 C 204.617283 14.896163 203.678207 15.139746 202.610929 15.149361 Z M 202.537214 12.550076 C 203.300012 12.550076 203.902559 12.280853 204.344854 11.742406 C 204.79356 11.20396 205.014707 10.486032 205.014707 9.582212 C 205.014707 8.771337 204.803175 8.12392 204.383315 7.643164 C 203.96025 7.155999 203.402574 6.912416 202.700671 6.912416 C 202.187865 6.912416 201.735954 7.040617 201.348145 7.293815 C 200.963541 7.543808 200.662267 7.889952 200.450735 8.329042 C 200.239202 8.768132 200.133436 9.277733 200.133436 9.851435 C 200.133436 10.700769 200.344968 11.364212 200.771238 11.841763 C 201.194303 12.312903 201.78403 12.550076 202.537214 12.550076 Z M 202.537214 12.550076 " stroke="#000000" stroke-width="1.113188" stroke-opacity="1" stroke-miterlimit="4"/><g fill="#ed1b1c" fill-opacity="1"><g transform="translate(94.015442, 316.794524)"><g><path d="M 7.171875 0.1875 C 5.773438 0.195312 4.578125 -0.0507812 3.578125 -0.5625 C 2.578125 -1.070312 1.8125 -1.800781 1.28125 -2.75 C 0.75 -3.695312 0.484375 -4.84375 0.484375 -6.1875 C 0.484375 -7.5625 0.769531 -8.757812 1.34375 -9.78125 C 1.925781 -10.8125 2.738281 -11.609375 3.78125 -12.171875 C 4.820312 -12.742188 6.035156 -13.03125 7.421875 -13.03125 C 8.679688 -13.03125 9.785156 -12.765625 10.734375 -12.234375 C 11.679688 -11.703125 12.414062 -10.960938 12.9375 -10.015625 C 13.46875 -9.066406 13.734375 -7.953125 13.734375 -6.671875 C 13.734375 -5.328125 13.457031 -4.140625 12.90625 -3.109375 C 12.363281 -2.085938 11.597656 -1.285156 10.609375 -0.703125 C 9.617188 -0.128906 8.472656 0.164062 7.171875 0.1875 Z M 7.078125 -2.984375 C 8.003906 -2.984375 8.738281 -3.3125 9.28125 -3.96875 C 9.820312 -4.625 10.09375 -5.503906 10.09375 -6.609375 C 10.09375 -7.597656 9.835938 -8.382812 9.328125 -8.96875 C 8.816406 -9.5625 8.132812 -9.859375 7.28125 -9.859375 C 6.644531 -9.859375 6.09375 -9.703125 5.625 -9.390625 C 5.15625 -9.085938 4.789062 -8.664062 4.53125 -8.125 C 4.269531 -7.59375 4.140625 -6.976562 4.140625 -6.28125 C 4.140625 -5.238281 4.398438 -4.425781 4.921875 -3.84375 C 5.441406 -3.269531 6.160156 -2.984375 7.078125 -2.984375 Z M 7.078125 -2.984375 "/></g></g></g><g fill="#ed1b1c" fill-opacity="1"><g transform="translate(111.856391, 316.794524)"><g><path d="M 9.28125 -12.84375 L 12.75 -12.84375 L 12.75 0 L 9.53125 0 L 4.5625 -6.90625 L 4.5625 0 L 1.078125 0 L 1.078125 -12.84375 L 4.3125 -12.84375 L 9.28125 -5.953125 Z M 9.28125 -12.84375 "/></g></g></g><g fill="#ed1b1c" fill-opacity="1"><g transform="translate(129.317827, 316.794524)"><g><path d="M 1.078125 0 L 1.078125 -12.84375 L 4.703125 -12.84375 L 4.703125 -3.140625 L 10.0625 -3.140625 L 9.84375 0 Z M 1.078125 0 "/></g></g></g><g fill="#ed1b1c" fill-opacity="1"><g transform="translate(142.929835, 316.794524)"><g><path d="M 1.078125 0 L 1.078125 -12.84375 L 4.703125 -12.84375 L 4.703125 0 Z M 1.078125 0 "/></g></g></g><g fill="#ed1b1c" fill-opacity="1"><g transform="translate(152.34905, 316.794524)"><g><path d="M 9.28125 -12.84375 L 12.75 -12.84375 L 12.75 0 L 9.53125 0 L 4.5625 -6.90625 L 4.5625 0 L 1.078125 0 L 1.078125 -12.84375 L 4.3125 -12.84375 L 9.28125 -5.953125 Z M 9.28125 -12.84375 "/></g></g></g><g fill="#ed1b1c" fill-opacity="1"><g transform="translate(169.810486, 316.794524)"><g><path d="M 10.453125 -9.75 L 4.65625 -9.75 L 4.65625 -8 L 9.984375 -8 L 9.984375 -4.90625 L 4.65625 -4.90625 L 4.65625 -3.09375 L 10.609375 -3.09375 L 10.390625 0 L 1.078125 0 L 1.078125 -12.84375 L 10.453125 -12.84375 Z M 10.453125 -9.75 "/></g></g></g><g fill="#ed1b1c" fill-opacity="1"><g transform="translate(184.199616, 316.794524)"><g/></g></g><g fill="#ed1b1c" fill-opacity="1"><g transform="translate(192.570643, 316.794524)"><g><path d="M 12.875 -2.546875 C 12.320312 -1.671875 11.5625 -0.992188 10.59375 -0.515625 C 9.632812 -0.0351562 8.5625 0.203125 7.375 0.203125 C 5.9375 0.203125 4.695312 -0.0507812 3.65625 -0.5625 C 2.625 -1.070312 1.835938 -1.800781 1.296875 -2.75 C 0.753906 -3.695312 0.484375 -4.832031 0.484375 -6.15625 C 0.484375 -7.539062 0.78125 -8.742188 1.375 -9.765625 C 1.976562 -10.796875 2.816406 -11.597656 3.890625 -12.171875 C 4.960938 -12.742188 6.210938 -13.03125 7.640625 -13.03125 C 8.890625 -13.03125 9.941406 -12.804688 10.796875 -12.359375 C 11.660156 -11.921875 12.363281 -11.242188 12.90625 -10.328125 L 10.171875 -8.390625 C 9.941406 -8.835938 9.582031 -9.191406 9.09375 -9.453125 C 8.613281 -9.710938 8.085938 -9.84375 7.515625 -9.84375 C 6.453125 -9.851562 5.625 -9.523438 5.03125 -8.859375 C 4.445312 -8.191406 4.15625 -7.320312 4.15625 -6.25 C 4.15625 -5.21875 4.421875 -4.414062 4.953125 -3.84375 C 5.492188 -3.269531 6.3125 -2.984375 7.40625 -2.984375 C 8.65625 -2.984375 9.59375 -3.523438 10.21875 -4.609375 Z M 12.875 -2.546875 "/></g></g></g><g fill="#ed1b1c" fill-opacity="1"><g transform="translate(208.730857, 316.794524)"><g><path d="M -0.703125 0 L 4.953125 -12.84375 L 7.96875 -12.84375 L 13.421875 0 L 9.765625 0 L 8.859375 -2.296875 L 3.890625 -2.296875 L 2.953125 0 Z M 5.125 -5.28125 L 7.671875 -5.28125 L 6.421875 -8.4375 Z M 5.125 -5.28125 "/></g></g></g><g fill="#ed1b1c" fill-opacity="1"><g transform="translate(225.144086, 316.794524)"><g><path d="M 5.40625 0.1875 C 3.789062 0.1875 2.53125 -0.15625 1.625 -0.84375 C 0.71875 -1.53125 0.207031 -2.535156 0.09375 -3.859375 L 3.4375 -4.34375 C 3.457031 -3.882812 3.65625 -3.507812 4.03125 -3.21875 C 4.414062 -2.9375 4.910156 -2.796875 5.515625 -2.796875 C 6.628906 -2.796875 7.1875 -3.085938 7.1875 -3.671875 C 7.1875 -3.941406 7.03125 -4.15625 6.71875 -4.3125 C 6.414062 -4.476562 5.914062 -4.644531 5.21875 -4.8125 C 3.71875 -5.175781 2.617188 -5.660156 1.921875 -6.265625 C 1.222656 -6.867188 0.878906 -7.71875 0.890625 -8.8125 C 0.898438 -9.644531 1.117188 -10.375 1.546875 -11 C 1.972656 -11.632812 2.578125 -12.128906 3.359375 -12.484375 C 4.140625 -12.847656 5.050781 -13.03125 6.09375 -13.03125 C 7.382812 -13.03125 8.445312 -12.703125 9.28125 -12.046875 C 10.125 -11.398438 10.609375 -10.515625 10.734375 -9.390625 L 7.5625 -8.84375 C 7.5 -9.195312 7.3125 -9.484375 7 -9.703125 C 6.695312 -9.929688 6.332031 -10.046875 5.90625 -10.046875 C 5.488281 -10.046875 5.15625 -9.960938 4.90625 -9.796875 C 4.664062 -9.628906 4.546875 -9.410156 4.546875 -9.140625 C 4.546875 -8.878906 4.664062 -8.65625 4.90625 -8.46875 C 5.15625 -8.289062 5.625 -8.113281 6.3125 -7.9375 C 7.300781 -7.695312 8.128906 -7.421875 8.796875 -7.109375 C 9.472656 -6.804688 9.984375 -6.414062 10.328125 -5.9375 C 10.671875 -5.457031 10.84375 -4.820312 10.84375 -4.03125 C 10.84375 -3.195312 10.613281 -2.460938 10.15625 -1.828125 C 9.707031 -1.203125 9.070312 -0.707031 8.25 -0.34375 C 7.4375 0.0078125 6.488281 0.1875 5.40625 0.1875 Z M 5.40625 0.1875 "/></g></g></g><g fill="#ed1b1c" fill-opacity="1"><g transform="translate(239.858518, 316.794524)"><g><path d="M 1.078125 0 L 1.078125 -12.84375 L 4.703125 -12.84375 L 4.703125 0 Z M 1.078125 0 "/></g></g></g><g fill="#ed1b1c" fill-opacity="1"><g transform="translate(249.277738, 316.794524)"><g><path d="M 9.28125 -12.84375 L 12.75 -12.84375 L 12.75 0 L 9.53125 0 L 4.5625 -6.90625 L 4.5625 0 L 1.078125 0 L 1.078125 -12.84375 L 4.3125 -12.84375 L 9.28125 -5.953125 Z M 9.28125 -12.84375 "/></g></g></g><g fill="#ed1b1c" fill-opacity="1"><g transform="translate(266.739178, 316.794524)"><g><path d="M 7.171875 0.1875 C 5.773438 0.195312 4.578125 -0.0507812 3.578125 -0.5625 C 2.578125 -1.070312 1.8125 -1.800781 1.28125 -2.75 C 0.75 -3.695312 0.484375 -4.84375 0.484375 -6.1875 C 0.484375 -7.5625 0.769531 -8.757812 1.34375 -9.78125 C 1.925781 -10.8125 2.738281 -11.609375 3.78125 -12.171875 C 4.820312 -12.742188 6.035156 -13.03125 7.421875 -13.03125 C 8.679688 -13.03125 9.785156 -12.765625 10.734375 -12.234375 C 11.679688 -11.703125 12.414062 -10.960938 12.9375 -10.015625 C 13.46875 -9.066406 13.734375 -7.953125 13.734375 -6.671875 C 13.734375 -5.328125 13.457031 -4.140625 12.90625 -3.109375 C 12.363281 -2.085938 11.597656 -1.285156 10.609375 -0.703125 C 9.617188 -0.128906 8.472656 0.164062 7.171875 0.1875 Z M 7.078125 -2.984375 C 8.003906 -2.984375 8.738281 -3.3125 9.28125 -3.96875 C 9.820312 -4.625 10.09375 -5.503906 10.09375 -6.609375 C 10.09375 -7.597656 9.835938 -8.382812 9.328125 -8.96875 C 8.816406 -9.5625 8.132812 -9.859375 7.28125 -9.859375 C 6.644531 -9.859375 6.09375 -9.703125 5.625 -9.390625 C 5.15625 -9.085938 4.789062 -8.664062 4.53125 -8.125 C 4.269531 -7.59375 4.140625 -6.976562 4.140625 -6.28125 C 4.140625 -5.238281 4.398438 -4.425781 4.921875 -3.84375 C 5.441406 -3.269531 6.160156 -2.984375 7.078125 -2.984375 Z M 7.078125 -2.984375 "/></g></g></g></svg>