<svg xmlns="http://www.w3.org/2000/svg" xmlns:xlink="http://www.w3.org/1999/xlink" width="500" zoomAndPan="magnify" viewBox="0 0 375 374.999991" height="500" preserveAspectRatio="xMidYMid meet" version="1.0"><defs><g/><clipPath id="c712742dd7"><path d="M 136 124 L 201 124 L 201 210.570312 L 136 210.570312 Z M 136 124 " clip-rule="nonzero"/></clipPath><clipPath id="0ef0af6d4c"><path d="M 191 156 L 263.761719 156 L 263.761719 208 L 191 208 Z M 191 156 " clip-rule="nonzero"/></clipPath><clipPath id="e4fba18bd4"><path d="M 135 83.070312 L 209 83.070312 L 209 146 L 135 146 Z M 135 83.070312 " clip-rule="nonzero"/></clipPath></defs><rect x="-37.5" width="450" fill="#ffffff" y="-37.499999" height="449.999989" fill-opacity="1"/><rect x="-37.5" width="450" fill="#000000" y="-37.499999" height="449.999989" fill-opacity="1"/><path fill="#ed1c24" d="M 180.832031 154.433594 L 174.507812 152.828125 L 173.746094 159.3125 L 180.066406 160.910156 Z M 180.832031 154.433594 " fill-opacity="1" fill-rule="nonzero"/><path fill="#ed1c24" d="M 174.007812 150 L 173.601562 150.277344 L 173.871094 150.679688 L 177.449219 148.222656 L 177.175781 147.824219 L 176.886719 148.019531 C 176.675781 148.164062 176.457031 148.25 176.234375 148.265625 C 176.011719 148.28125 175.757812 148.230469 175.460938 148.113281 L 170.167969 146.03125 L 170.695312 142.851562 C 170.761719 142.46875 170.878906 142.128906 171.050781 141.816406 C 171.21875 141.507812 171.417969 141.28125 171.636719 141.128906 L 171.890625 140.957031 L 171.613281 140.558594 L 168.347656 142.792969 L 168.621094 143.191406 L 168.839844 143.039062 C 169.113281 142.851562 169.335938 142.757812 169.503906 142.757812 C 169.675781 142.757812 169.800781 142.816406 169.894531 142.945312 C 170.003906 143.105469 170.039062 143.34375 169.996094 143.652344 L 169.199219 148.894531 L 166.675781 145.207031 C 166.582031 145.070312 166.554688 144.933594 166.582031 144.789062 C 166.613281 144.644531 166.707031 144.507812 166.871094 144.398438 L 167.644531 143.871094 L 167.371094 143.472656 L 163.742188 145.960938 L 164.023438 146.363281 L 164.609375 145.953125 C 164.839844 145.800781 165.027344 145.722656 165.171875 145.722656 C 165.316406 145.722656 165.433594 145.792969 165.519531 145.917969 L 169.859375 152.257812 C 169.945312 152.378906 169.964844 152.503906 169.929688 152.632812 C 169.894531 152.769531 169.785156 152.898438 169.605469 153.015625 L 168.910156 153.492188 L 169.179688 153.890625 L 172.808594 151.402344 L 172.539062 151 L 171.765625 151.527344 C 171.601562 151.640625 171.441406 151.691406 171.273438 151.679688 C 171.160156 151.671875 171.066406 151.605469 170.984375 151.484375 L 169.640625 149.53125 L 169.972656 147.347656 L 174.363281 149.0625 C 174.449219 149.097656 174.519531 149.15625 174.570312 149.226562 C 174.621094 149.300781 174.609375 149.394531 174.550781 149.515625 C 174.492188 149.632812 174.304688 149.792969 174.007812 150 Z M 174.007812 150 " fill-opacity="1" fill-rule="nonzero"/><g clip-path="url(#c712742dd7)"><path fill="#fffffe" d="M 199.859375 204.460938 L 161.644531 148.679688 C 160.113281 146.457031 160.683594 143.40625 162.917969 141.882812 L 178.9375 130.914062 L 171.902344 125.304688 C 169.785156 123.621094 166.707031 123.96875 165.027344 126.078125 L 137.941406 160.070312 C 136.261719 162.183594 136.609375 165.261719 138.726562 166.941406 L 191.605469 209.074219 C 193.722656 210.757812 196.800781 210.410156 198.480469 208.300781 L 200.757812 205.445312 C 200.417969 205.15625 200.121094 204.835938 199.859375 204.460938 Z M 150.621094 164.964844 L 150.929688 164.574219 C 151.148438 164.292969 151.277344 164.089844 151.300781 163.953125 C 151.328125 163.824219 151.308594 163.730469 151.234375 163.671875 C 151.164062 163.621094 151.089844 163.585938 150.988281 163.578125 L 146.28125 163.222656 L 146.601562 165.414062 L 148.457031 166.890625 C 148.574219 166.984375 148.683594 167.019531 148.785156 166.996094 C 148.957031 166.953125 149.101562 166.859375 149.21875 166.707031 L 149.804688 165.972656 L 150.1875 166.28125 L 147.460938 169.714844 L 147.078125 169.40625 L 147.605469 168.746094 C 147.742188 168.574219 147.808594 168.421875 147.800781 168.285156 C 147.792969 168.148438 147.742188 168.039062 147.621094 167.945312 L 141.605469 163.152344 C 141.488281 163.058594 141.359375 163.035156 141.222656 163.066406 C 141.085938 163.101562 140.925781 163.238281 140.757812 163.449219 L 140.3125 164.011719 L 139.933594 163.707031 L 142.675781 160.265625 L 143.058594 160.570312 L 142.472656 161.300781 C 142.34375 161.453125 142.292969 161.605469 142.3125 161.757812 C 142.328125 161.914062 142.394531 162.03125 142.523438 162.132812 L 146.015625 164.921875 L 145.25 159.667969 C 145.207031 159.363281 145.105469 159.152344 144.945312 159.03125 C 144.828125 158.9375 144.683594 158.914062 144.519531 158.972656 C 144.359375 159.023438 144.171875 159.175781 143.96875 159.429688 L 143.796875 159.644531 L 143.414062 159.335938 L 145.878906 156.246094 L 146.261719 156.550781 L 146.074219 156.789062 C 145.914062 156.992188 145.785156 157.273438 145.71875 157.621094 C 145.640625 157.96875 145.632812 158.335938 145.683594 158.71875 L 146.117188 161.914062 L 151.785156 162.347656 C 152.101562 162.371094 152.363281 162.347656 152.566406 162.261719 C 152.773438 162.183594 152.957031 162.039062 153.121094 161.835938 L 153.339844 161.5625 L 153.722656 161.871094 L 151.019531 165.269531 Z M 159.722656 173.070312 L 158.609375 174.464844 C 158.609375 174.464844 158.523438 173.367188 157.582031 172.289062 C 157.605469 172.796875 157.460938 173.308594 157.121094 173.742188 C 156.382812 174.667969 155.039062 174.820312 154.113281 174.082031 C 153.1875 173.34375 153.035156 171.992188 153.773438 171.074219 C 153.78125 171.066406 153.800781 171.046875 153.808594 171.039062 C 153.671875 170.972656 153.546875 170.894531 153.425781 170.800781 C 152.5 170.0625 152.347656 168.71875 153.085938 167.792969 C 153.824219 166.867188 155.167969 166.714844 156.09375 167.453125 C 156.214844 167.546875 156.324219 167.65625 156.417969 167.769531 C 156.425781 167.757812 156.433594 167.742188 156.441406 167.726562 C 157.183594 166.800781 158.535156 166.644531 159.453125 167.386719 C 160.378906 168.125 160.53125 169.476562 159.792969 170.394531 C 159.453125 170.816406 158.976562 171.082031 158.484375 171.167969 C 159.738281 171.847656 160.828125 171.675781 160.828125 171.675781 Z M 159.722656 173.070312 " fill-opacity="1" fill-rule="nonzero"/></g><path fill="#fffffe" d="M 219.472656 133.871094 C 221.46875 133.921875 223.492188 134.125 225.519531 134.53125 C 220.660156 134.429688 215.945312 135.398438 211.644531 137.269531 C 208.023438 138.839844 204.710938 141.042969 201.863281 143.769531 C 198.480469 147.007812 195.753906 150.984375 193.96875 155.503906 C 193.253906 157.308594 192.6875 159.195312 192.285156 161.15625 C 191.886719 163.121094 191.691406 165.082031 191.648438 167.019531 C 191.546875 171.878906 192.515625 176.597656 194.386719 180.886719 C 195.957031 184.507812 198.167969 187.824219 200.886719 190.667969 C 204.125 194.050781 208.101562 196.777344 212.621094 198.5625 C 214.421875 199.277344 216.308594 199.847656 218.273438 200.246094 C 220.234375 200.644531 222.199219 200.839844 224.136719 200.882812 C 228.996094 200.984375 233.714844 200.015625 238.011719 198.148438 C 241.632812 196.574219 244.949219 194.367188 247.792969 191.644531 C 251.175781 188.410156 253.902344 184.441406 255.6875 179.910156 C 256.402344 178.109375 256.972656 176.222656 257.371094 174.261719 C 257.769531 172.296875 257.964844 170.332031 258.007812 168.394531 C 258.109375 163.535156 257.140625 158.820312 255.273438 154.519531 C 253.699219 150.898438 251.5 147.585938 248.769531 144.738281 C 248.378906 144.332031 247.980469 143.929688 247.566406 143.539062 L 258.253906 126.492188 L 252.75 129.535156 C 252.824219 129.996094 252.824219 130.480469 252.730469 130.964844 C 252.304688 133.078125 250.242188 134.457031 248.125 134.03125 C 246.007812 133.605469 244.632812 131.542969 245.066406 129.425781 C 245.433594 127.625 246.96875 126.367188 248.730469 126.289062 L 249.917969 117.960938 L 244.207031 122.175781 C 244.777344 123.101562 245.015625 124.234375 244.785156 125.378906 C 244.300781 127.785156 241.964844 129.339844 239.558594 128.855469 C 237.15625 128.371094 235.609375 126.035156 236.085938 123.628906 C 236.441406 121.863281 237.800781 120.554688 239.457031 120.179688 L 236.875 111.453125 L 231.113281 118.496094 C 232.488281 119.484375 233.246094 121.21875 232.890625 122.984375 C 232.40625 125.390625 230.066406 126.9375 227.664062 126.460938 C 225.257812 125.976562 223.710938 123.640625 224.1875 121.234375 C 224.417969 120.085938 225.078125 119.136719 225.964844 118.507812 L 222.328125 112.414062 L 220.191406 120.554688 C 221.78125 121.300781 222.71875 123.0625 222.359375 124.863281 C 221.933594 126.976562 219.871094 128.355469 217.753906 127.921875 C 215.636719 127.496094 214.261719 125.433594 214.6875 123.316406 C 214.789062 122.832031 214.976562 122.382812 215.222656 121.988281 L 211.320312 117.054688 L 214.125 134.160156 C 215.894531 133.9375 217.667969 133.828125 219.472656 133.871094 Z M 213.445312 139.972656 L 217.167969 145.5625 C 213.410156 146.871094 210.039062 149.113281 207.386719 152.0625 L 203.664062 146.472656 C 206.460938 143.695312 209.792969 141.484375 213.445312 139.972656 Z M 195.421875 161.792969 C 195.820312 159.820312 196.40625 157.9375 197.15625 156.152344 L 203.742188 157.476562 C 202.890625 159.21875 202.253906 161.097656 201.855469 163.085938 C 201.457031 165.074219 201.320312 167.054688 201.429688 168.992188 L 194.84375 167.664062 C 194.835938 165.726562 195.023438 163.765625 195.421875 161.792969 Z M 203.597656 188.894531 C 200.808594 186.089844 198.601562 182.757812 197.097656 179.113281 L 202.6875 175.390625 C 203.996094 179.144531 206.238281 182.511719 209.1875 185.171875 Z M 224.789062 197.722656 C 222.851562 197.722656 220.890625 197.527344 218.917969 197.136719 C 216.945312 196.738281 215.0625 196.148438 213.277344 195.402344 L 214.601562 188.816406 C 216.34375 189.667969 218.222656 190.304688 220.210938 190.710938 C 222.199219 191.109375 224.179688 191.246094 226.117188 191.136719 Z M 236.230469 195.460938 L 232.507812 189.871094 C 236.261719 188.5625 239.636719 186.316406 242.289062 183.371094 L 246.007812 188.960938 C 243.207031 191.75 239.882812 193.957031 236.230469 195.460938 Z M 254.253906 173.640625 C 253.851562 175.609375 253.265625 177.496094 252.519531 179.28125 L 245.933594 177.957031 C 246.78125 176.207031 247.421875 174.335938 247.820312 172.347656 C 248.21875 170.359375 248.355469 168.378906 248.246094 166.441406 L 254.832031 167.769531 C 254.839844 169.707031 254.652344 171.667969 254.253906 173.640625 Z M 246.078125 146.546875 C 248.863281 149.351562 251.074219 152.683594 252.578125 156.328125 L 246.988281 160.050781 C 245.679688 156.296875 243.433594 152.921875 240.484375 150.269531 Z M 237.722656 152.097656 C 240.800781 154.648438 243.070312 158.054688 244.226562 161.878906 C 244.605469 163.144531 244.863281 164.445312 245 165.789062 C 245.183594 167.726562 245.101562 169.714844 244.699219 171.71875 C 244.300781 173.722656 243.605469 175.59375 242.6875 177.300781 C 242.050781 178.484375 241.308594 179.589844 240.46875 180.609375 C 237.917969 183.683594 234.511719 185.953125 230.6875 187.109375 C 229.421875 187.492188 228.113281 187.753906 226.777344 187.882812 C 224.839844 188.070312 222.851562 187.984375 220.847656 187.585938 C 218.84375 187.175781 216.972656 186.488281 215.265625 185.570312 C 214.082031 184.933594 212.980469 184.195312 211.957031 183.34375 C 208.882812 180.792969 206.613281 177.386719 205.457031 173.5625 C 205.074219 172.296875 204.8125 170.988281 204.683594 169.652344 C 204.496094 167.714844 204.582031 165.726562 204.980469 163.722656 C 205.382812 161.71875 206.078125 159.847656 206.996094 158.140625 C 207.632812 156.957031 208.371094 155.855469 209.214844 154.835938 C 211.761719 151.757812 215.179688 149.488281 218.996094 148.332031 C 220.261719 147.949219 221.570312 147.6875 222.902344 147.558594 C 224.839844 147.371094 226.828125 147.457031 228.835938 147.855469 C 230.839844 148.257812 232.710938 148.953125 234.417969 149.878906 C 235.601562 150.507812 236.714844 151.257812 237.722656 152.097656 Z M 233.789062 126.773438 L 234.996094 130.488281 L 232.445312 133.445312 L 231.242188 129.730469 Z M 230.757812 138.304688 C 232.726562 138.707031 234.613281 139.292969 236.398438 140.039062 L 235.074219 146.625 C 233.332031 145.777344 231.453125 145.136719 229.464844 144.738281 C 227.476562 144.339844 225.496094 144.203125 223.558594 144.304688 L 224.882812 137.71875 C 226.820312 137.71875 228.792969 137.90625 230.757812 138.304688 Z M 230.757812 138.304688 " fill-opacity="1" fill-rule="nonzero"/><path fill="#ed1c24" d="M 228.070312 151.671875 C 227.101562 151.476562 226.132812 151.375 225.179688 151.359375 C 222.785156 151.308594 220.457031 151.792969 218.339844 152.710938 C 216.554688 153.484375 214.925781 154.570312 213.515625 155.921875 C 211.847656 157.519531 210.503906 159.480469 209.621094 161.707031 C 209.273438 162.601562 208.984375 163.527344 208.789062 164.496094 C 208.59375 165.464844 208.492188 166.433594 208.476562 167.386719 C 208.425781 169.78125 208.898438 172.109375 209.824219 174.226562 C 210.597656 176.011719 211.6875 177.640625 213.03125 179.050781 C 214.628906 180.71875 216.589844 182.0625 218.816406 182.945312 C 219.707031 183.292969 220.636719 183.582031 221.605469 183.777344 C 222.574219 183.972656 223.542969 184.074219 224.492188 184.09375 C 226.890625 184.144531 229.21875 183.667969 231.332031 182.742188 C 233.117188 181.96875 234.75 180.878906 236.160156 179.527344 C 237.835938 177.929688 239.167969 175.96875 240.050781 173.742188 C 240.402344 172.847656 240.691406 171.921875 240.886719 170.953125 C 241.082031 169.984375 241.183594 169.015625 241.199219 168.066406 C 241.25 165.667969 240.773438 163.339844 239.847656 161.222656 C 239.074219 159.441406 237.988281 157.808594 236.636719 156.398438 C 235.039062 154.730469 233.074219 153.382812 230.847656 152.503906 C 229.964844 152.148438 229.039062 151.867188 228.070312 151.671875 Z M 237.382812 162.285156 C 238.15625 164.054688 238.558594 166 238.515625 168.003906 C 238.496094 168.804688 238.414062 169.613281 238.25 170.417969 C 238.089844 171.226562 237.851562 172.007812 237.554688 172.746094 C 236.816406 174.609375 235.691406 176.25 234.300781 177.582031 C 233.125 178.703125 231.757812 179.613281 230.261719 180.269531 C 228.496094 181.042969 226.550781 181.441406 224.542969 181.398438 C 223.746094 181.382812 222.9375 181.296875 222.128906 181.132812 C 221.324219 180.972656 220.542969 180.734375 219.800781 180.4375 C 217.941406 179.699219 216.300781 178.578125 214.96875 177.183594 C 213.84375 176.011719 212.9375 174.640625 212.289062 173.148438 C 211.515625 171.378906 211.117188 169.433594 211.160156 167.425781 C 211.175781 166.628906 211.261719 165.820312 211.421875 165.015625 C 211.585938 164.199219 211.824219 163.425781 212.113281 162.6875 C 212.851562 160.824219 213.972656 159.183594 215.367188 157.851562 C 216.539062 156.730469 217.90625 155.820312 219.402344 155.164062 C 221.171875 154.390625 223.117188 153.992188 225.121094 154.035156 C 225.921875 154.050781 226.726562 154.136719 227.535156 154.296875 C 228.34375 154.460938 229.125 154.699219 229.863281 154.988281 C 231.726562 155.726562 233.363281 156.847656 234.699219 158.242188 C 235.828125 159.429688 236.738281 160.789062 237.382812 162.285156 Z M 237.382812 162.285156 " fill-opacity="1" fill-rule="nonzero"/><g clip-path="url(#0ef0af6d4c)"><path fill="#ed1c24" d="M 260.949219 156.183594 C 263.21875 165.328125 262.199219 175 258.136719 183.148438 C 254.125 191.324219 247.089844 197.832031 238.769531 201.28125 C 234.621094 203.042969 230.144531 204.011719 225.632812 204.148438 C 223.378906 204.238281 221.101562 204.113281 218.867188 203.78125 C 216.632812 203.441406 214.421875 202.914062 212.265625 202.191406 C 207.957031 200.730469 203.878906 198.519531 200.308594 195.605469 C 196.707031 192.726562 193.65625 189.140625 191.183594 185.136719 C 193.042969 189.472656 195.839844 193.429688 199.296875 196.753906 C 201.03125 198.410156 202.941406 199.890625 204.964844 201.199219 C 206.996094 202.507812 209.179688 203.578125 211.421875 204.476562 C 215.917969 206.296875 220.832031 207.128906 225.691406 207.09375 C 230.578125 207.042969 235.445312 206.015625 239.96875 204.164062 C 244.480469 202.285156 248.636719 199.539062 252.121094 196.125 C 255.578125 192.691406 258.441406 188.636719 260.355469 184.167969 C 261.304688 181.933594 262.085938 179.640625 262.597656 177.277344 C 263.105469 174.914062 263.394531 172.519531 263.457031 170.121094 C 263.539062 165.347656 262.726562 160.554688 260.949219 156.183594 Z M 260.949219 156.183594 " fill-opacity="1" fill-rule="nonzero"/></g><path fill="#fffffe" d="M 190.671875 121.386719 C 192.277344 121.769531 192.882812 120.367188 192.882812 120.367188 C 193.1875 121.597656 192.492188 122.660156 192.492188 122.660156 L 194.039062 122.210938 L 195.582031 121.761719 C 195.582031 121.761719 194.417969 121.242188 194.011719 120.042969 C 194.011719 120.042969 195.277344 120.902344 196.417969 119.703125 C 197.53125 118.539062 197.316406 116.753906 195.277344 115.820312 C 192.160156 114.394531 191.394531 113.203125 191.394531 113.203125 C 191.394531 113.203125 191.394531 114.613281 189.535156 117.511719 C 188.328125 119.398438 189.109375 121.011719 190.671875 121.386719 Z M 190.671875 121.386719 " fill-opacity="1" fill-rule="nonzero"/><path fill="#fffffe" d="M 186.472656 111.664062 L 185.675781 111.929688 L 185.828125 112.394531 L 190 111.011719 L 189.847656 110.542969 L 188.957031 110.839844 C 188.777344 110.902344 188.597656 110.902344 188.4375 110.847656 C 188.335938 110.808594 188.257812 110.722656 188.207031 110.578125 L 187.460938 108.324219 L 188.386719 106.3125 L 192.132812 109.183594 C 192.210938 109.242188 192.261719 109.3125 192.285156 109.394531 C 192.3125 109.480469 192.285156 109.574219 192.183594 109.667969 C 192.089844 109.761719 191.871094 109.871094 191.53125 109.984375 L 191.0625 110.136719 L 191.214844 110.601562 L 195.335938 109.234375 L 195.183594 108.769531 L 194.851562 108.878906 C 194.605469 108.964844 194.378906 108.980469 194.15625 108.9375 C 193.945312 108.894531 193.707031 108.777344 193.449219 108.582031 L 188.9375 105.113281 L 190.324219 102.199219 C 190.492188 101.851562 190.699219 101.554688 190.953125 101.304688 C 191.207031 101.058594 191.453125 100.890625 191.707031 100.804688 L 191.996094 100.710938 L 191.84375 100.246094 L 188.097656 101.484375 L 188.25 101.953125 L 188.503906 101.867188 C 188.8125 101.765625 189.050781 101.738281 189.21875 101.78125 C 189.390625 101.824219 189.492188 101.925781 189.542969 102.0625 C 189.601562 102.25 189.574219 102.488281 189.449219 102.769531 L 187.222656 107.59375 L 185.8125 103.355469 C 185.761719 103.203125 185.769531 103.058594 185.835938 102.929688 C 185.90625 102.792969 186.039062 102.699219 186.226562 102.632812 L 187.121094 102.335938 L 186.96875 101.867188 L 182.792969 103.261719 L 182.949219 103.726562 L 183.628906 103.507812 C 183.890625 103.421875 184.09375 103.398438 184.230469 103.441406 C 184.367188 103.480469 184.460938 103.574219 184.511719 103.71875 L 186.933594 111.019531 C 186.976562 111.15625 186.96875 111.28125 186.890625 111.402344 C 186.824219 111.503906 186.6875 111.597656 186.472656 111.664062 Z M 186.472656 111.664062 " fill-opacity="1" fill-rule="nonzero"/><g clip-path="url(#e4fba18bd4)"><path fill="#ed1c24" d="M 163.597656 124.949219 C 164.71875 123.546875 166.316406 122.660156 168.09375 122.457031 C 169.878906 122.253906 171.628906 122.761719 173.03125 123.875 L 180.585938 129.832031 L 183.601562 127.871094 L 191.183594 145.546875 L 185.515625 126.628906 L 185.554688 126.605469 L 179.003906 106.832031 C 178.445312 105.128906 178.570312 103.304688 179.378906 101.707031 C 180.1875 100.101562 181.5625 98.910156 183.269531 98.339844 L 186.679688 97.210938 L 208.796875 90.421875 L 184.980469 95.460938 L 174.882812 85.058594 C 173.003906 83.121094 169.902344 83.070312 167.964844 84.957031 L 136.789062 115.21875 C 134.851562 117.09375 134.800781 120.195312 136.6875 122.132812 L 152.695312 138.628906 Z M 144.996094 126 L 144.65625 125.652344 L 145.261719 125.066406 C 145.414062 124.914062 145.496094 124.769531 145.515625 124.632812 C 145.53125 124.496094 145.480469 124.378906 145.386719 124.277344 L 140.035156 118.761719 C 139.933594 118.652344 139.804688 118.609375 139.660156 118.632812 C 139.515625 118.652344 139.34375 118.761719 139.148438 118.957031 L 138.640625 119.457031 L 138.300781 119.109375 L 141.460938 116.042969 L 141.800781 116.390625 L 141.128906 117.042969 C 140.984375 117.179688 140.910156 117.324219 140.910156 117.476562 C 140.902344 117.628906 140.960938 117.757812 141.070312 117.878906 L 144.179688 121.082031 L 144.085938 115.777344 C 144.078125 115.472656 144.003906 115.242188 143.867188 115.105469 C 143.765625 114.996094 143.621094 114.960938 143.449219 114.988281 C 143.28125 115.023438 143.074219 115.148438 142.847656 115.378906 L 142.652344 115.566406 L 142.3125 115.21875 L 145.148438 112.464844 L 145.488281 112.8125 L 145.269531 113.023438 C 145.082031 113.210938 144.921875 113.46875 144.808594 113.796875 C 144.691406 114.128906 144.632812 114.488281 144.632812 114.878906 L 144.65625 118.097656 L 150.222656 119.253906 C 150.535156 119.320312 150.800781 119.320312 151.011719 119.269531 C 151.226562 119.21875 151.429688 119.101562 151.617188 118.921875 L 151.871094 118.675781 L 152.210938 119.023438 L 149.074219 122.03125 L 148.734375 121.683594 L 149.09375 121.34375 C 149.347656 121.089844 149.5 120.902344 149.542969 120.773438 C 149.585938 120.648438 149.578125 120.554688 149.507812 120.484375 C 149.449219 120.425781 149.371094 120.382812 149.28125 120.367188 L 144.65625 119.414062 L 144.699219 121.625 L 146.347656 123.324219 C 146.449219 123.425781 146.558594 123.476562 146.671875 123.46875 C 146.839844 123.441406 147.003906 123.367188 147.136719 123.238281 L 147.808594 122.585938 L 148.148438 122.933594 Z M 150.851562 130.386719 C 149.40625 130.308594 148.226562 129.085938 148.207031 127.640625 C 148.191406 126.195312 149.339844 125.082031 150.785156 125.160156 L 151.558594 125.203125 L 151.546875 124.429688 C 151.53125 122.984375 152.679688 121.871094 154.125 121.949219 C 155.566406 122.023438 156.75 123.246094 156.765625 124.691406 L 156.773438 125.472656 L 156.84375 130.699219 L 151.617188 130.4375 Z M 150.851562 130.386719 " fill-opacity="1" fill-rule="nonzero"/></g><g fill="#ed1c24" fill-opacity="1"><g transform="translate(6.334784, 262.336209)"><g><path d="M 18.625 -46.15625 L 0.34375 -46.15625 L 0.34375 -59.515625 L 53.640625 -59.515625 L 53.640625 -46.15625 L 35.453125 -46.15625 L 35.453125 0 L 18.625 0 Z M 18.625 -46.15625 "/></g></g></g><g fill="#ed1c24" fill-opacity="1"><g transform="translate(53.855739, 262.336209)"><g><path d="M 45.828125 -31.03125 L 60.703125 -31.03125 L 60.703125 -6.375 C 57.296875 -3.9375 53.382812 -2.066406 48.96875 -0.765625 C 44.550781 0.535156 40.128906 1.1875 35.703125 1.1875 C 29.472656 1.1875 23.863281 -0.128906 18.875 -2.765625 C 13.882812 -5.398438 9.972656 -9.066406 7.140625 -13.765625 C 4.304688 -18.472656 2.890625 -23.800781 2.890625 -29.75 C 2.890625 -35.707031 4.304688 -41.035156 7.140625 -45.734375 C 9.972656 -50.441406 13.910156 -54.113281 18.953125 -56.75 C 24.003906 -59.382812 29.703125 -60.703125 36.046875 -60.703125 C 41.597656 -60.703125 46.582031 -59.765625 51 -57.890625 C 55.425781 -56.023438 59.113281 -53.332031 62.0625 -49.8125 L 51.34375 -40.125 C 47.320312 -44.550781 42.503906 -46.765625 36.890625 -46.765625 C 31.796875 -46.765625 27.6875 -45.21875 24.5625 -42.125 C 21.445312 -39.03125 19.890625 -34.90625 19.890625 -29.75 C 19.890625 -26.46875 20.597656 -23.535156 22.015625 -20.953125 C 23.429688 -18.378906 25.414062 -16.367188 27.96875 -14.921875 C 30.519531 -13.472656 33.441406 -12.75 36.734375 -12.75 C 39.960938 -12.75 42.992188 -13.398438 45.828125 -14.703125 Z M 45.828125 -31.03125 "/></g></g></g><g fill="#ed1c24" fill-opacity="1"><g transform="translate(112.853364, 262.336209)"><g><path d="M 59.6875 0 L 59.515625 -31.546875 L 44.203125 -5.859375 L 36.734375 -5.859375 L 21.515625 -30.6875 L 21.515625 0 L 5.953125 0 L 5.953125 -59.515625 L 19.8125 -59.515625 L 40.71875 -25.171875 L 61.125 -59.515625 L 74.984375 -59.515625 L 75.15625 0 Z M 59.6875 0 "/></g></g></g><g fill="#ed1c24" fill-opacity="1"><g transform="translate(187.493285, 262.336209)"><g><path d="M 11.984375 0.765625 C 9.265625 0.765625 6.96875 -0.140625 5.09375 -1.953125 C 3.226562 -3.765625 2.296875 -6.0625 2.296875 -8.84375 C 2.296875 -11.675781 3.21875 -13.96875 5.0625 -15.71875 C 6.90625 -17.476562 9.210938 -18.359375 11.984375 -18.359375 C 14.816406 -18.359375 17.140625 -17.476562 18.953125 -15.71875 C 20.765625 -13.96875 21.671875 -11.675781 21.671875 -8.84375 C 21.671875 -6.0625 20.75 -3.765625 18.90625 -1.953125 C 17.070312 -0.140625 14.765625 0.765625 11.984375 0.765625 Z M 11.984375 0.765625 "/></g></g></g><g fill="#ed1c24" fill-opacity="1"><g transform="translate(205.089846, 262.336209)"><g><path d="M 51.6875 -31.03125 C 55.09375 -29.84375 57.757812 -27.984375 59.6875 -25.453125 C 61.613281 -22.929688 62.578125 -19.890625 62.578125 -16.328125 C 62.578125 -11.109375 60.476562 -7.082031 56.28125 -4.25 C 52.082031 -1.414062 46.019531 0 38.09375 0 L 5.953125 0 L 5.953125 -59.515625 L 36.390625 -59.515625 C 43.984375 -59.515625 49.765625 -58.109375 53.734375 -55.296875 C 57.703125 -52.492188 59.6875 -48.710938 59.6875 -43.953125 C 59.6875 -41.117188 58.988281 -38.582031 57.59375 -36.34375 C 56.207031 -34.101562 54.238281 -32.332031 51.6875 -31.03125 Z M 22.609375 -47.359375 L 22.609375 -35.875 L 34.171875 -35.875 C 39.835938 -35.875 42.671875 -37.800781 42.671875 -41.65625 C 42.671875 -45.457031 39.835938 -47.359375 34.171875 -47.359375 Z M 36.734375 -12.15625 C 42.617188 -12.15625 45.5625 -14.164062 45.5625 -18.1875 C 45.5625 -22.21875 42.617188 -24.234375 36.734375 -24.234375 L 22.609375 -24.234375 L 22.609375 -12.15625 Z M 36.734375 -12.15625 "/></g></g></g><g fill="#ed1c24" fill-opacity="1"><g transform="translate(264.002454, 262.336209)"><g><path d="M 53.734375 -13 L 53.734375 0 L 5.953125 0 L 5.953125 -59.515625 L 52.625 -59.515625 L 52.625 -46.5 L 22.609375 -46.5 L 22.609375 -36.46875 L 49.046875 -36.46875 L 49.046875 -23.890625 L 22.609375 -23.890625 L 22.609375 -13 Z M 53.734375 -13 "/></g></g></g><g fill="#ed1c24" fill-opacity="1"><g transform="translate(314.668881, 262.336209)"><g><path d="M 18.625 -46.15625 L 0.34375 -46.15625 L 0.34375 -59.515625 L 53.640625 -59.515625 L 53.640625 -46.15625 L 35.453125 -46.15625 L 35.453125 0 L 18.625 0 Z M 18.625 -46.15625 "/></g></g></g><g fill="#ffffff" fill-opacity="1"><g transform="translate(83.062884, 286.942126)"><g><path d="M 0.859375 -5.71875 C 0.859375 -6.769531 1.117188 -7.742188 1.640625 -8.640625 C 2.171875 -9.535156 2.882812 -10.25 3.78125 -10.78125 C 4.6875 -11.320312 5.664062 -11.59375 6.71875 -11.59375 C 7.769531 -11.59375 8.742188 -11.320312 9.640625 -10.78125 C 10.546875 -10.25 11.265625 -9.53125 11.796875 -8.625 C 12.328125 -7.726562 12.59375 -6.757812 12.59375 -5.71875 C 12.59375 -4.65625 12.328125 -3.675781 11.796875 -2.78125 C 11.273438 -1.894531 10.5625 -1.1875 9.65625 -0.65625 C 8.75 -0.132812 7.769531 0.125 6.71875 0.125 C 5.664062 0.125 4.6875 -0.132812 3.78125 -0.65625 C 2.882812 -1.175781 2.171875 -1.878906 1.640625 -2.765625 C 1.117188 -3.660156 0.859375 -4.644531 0.859375 -5.71875 Z M 2.75 -5.71875 C 2.75 -4.96875 2.925781 -4.28125 3.28125 -3.65625 C 3.644531 -3.039062 4.132812 -2.550781 4.75 -2.1875 C 5.363281 -1.820312 6.035156 -1.640625 6.765625 -1.640625 C 7.492188 -1.640625 8.15625 -1.816406 8.75 -2.171875 C 9.351562 -2.535156 9.828125 -3.03125 10.171875 -3.65625 C 10.523438 -4.28125 10.703125 -4.96875 10.703125 -5.71875 C 10.703125 -6.457031 10.523438 -7.140625 10.171875 -7.765625 C 9.816406 -8.398438 9.332031 -8.898438 8.71875 -9.265625 C 8.113281 -9.640625 7.445312 -9.828125 6.71875 -9.828125 C 5.988281 -9.828125 5.320312 -9.640625 4.71875 -9.265625 C 4.113281 -8.898438 3.632812 -8.398438 3.28125 -7.765625 C 2.925781 -7.140625 2.75 -6.457031 2.75 -5.71875 Z M 2.75 -5.71875 "/></g></g></g><g fill="#ffffff" fill-opacity="1"><g transform="translate(102.829381, 286.942126)"><g><path d="M 11.703125 -11.46875 L 11.703125 0.40625 L 11.65625 0.40625 L 3.390625 -7.609375 L 3.4375 0 L 1.578125 0 L 1.578125 -11.859375 L 1.671875 -11.859375 L 9.90625 -3.75 L 9.875 -11.46875 Z M 11.703125 -11.46875 "/></g></g></g><g fill="#ffffff" fill-opacity="1"><g transform="translate(122.422622, 286.942126)"><g><path d="M 3.421875 -11.46875 L 3.421875 -1.765625 L 9.078125 -1.765625 L 9.078125 0 L 1.578125 0 L 1.578125 -11.46875 Z M 3.421875 -11.46875 "/></g></g></g><g fill="#ffffff" fill-opacity="1"><g transform="translate(138.645327, 286.942126)"><g><path d="M 3.421875 -11.46875 L 3.421875 0 L 1.578125 0 L 1.578125 -11.46875 Z M 3.421875 -11.46875 "/></g></g></g><g fill="#ffffff" fill-opacity="1"><g transform="translate(149.938205, 286.942126)"><g><path d="M 11.703125 -11.46875 L 11.703125 0.40625 L 11.65625 0.40625 L 3.390625 -7.609375 L 3.4375 0 L 1.578125 0 L 1.578125 -11.859375 L 1.671875 -11.859375 L 9.90625 -3.75 L 9.875 -11.46875 Z M 11.703125 -11.46875 "/></g></g></g><g fill="#ffffff" fill-opacity="1"><g transform="translate(169.531444, 286.942126)"><g><path d="M 9.1875 -11.46875 L 9.1875 -9.703125 L 3.421875 -9.703125 L 3.421875 -6.640625 L 8.546875 -6.640625 L 8.546875 -4.875 L 3.421875 -4.875 L 3.421875 -1.765625 L 9.40625 -1.765625 L 9.40625 0 L 1.578125 0 L 1.578125 -11.46875 Z M 9.1875 -11.46875 "/></g></g></g><g fill="#ffffff" fill-opacity="1"><g transform="translate(186.195153, 286.942126)"><g/></g></g><g fill="#ffffff" fill-opacity="1"><g transform="translate(197.53528, 286.942126)"><g><path d="M 10.078125 -0.890625 C 9.742188 -0.648438 9.28125 -0.421875 8.6875 -0.203125 C 8.09375 0.015625 7.441406 0.125 6.734375 0.125 C 5.554688 0.125 4.519531 -0.132812 3.625 -0.65625 C 2.738281 -1.175781 2.054688 -1.875 1.578125 -2.75 C 1.097656 -3.625 0.859375 -4.585938 0.859375 -5.640625 C 0.859375 -6.785156 1.097656 -7.804688 1.578125 -8.703125 C 2.054688 -9.609375 2.722656 -10.316406 3.578125 -10.828125 C 4.429688 -11.335938 5.40625 -11.59375 6.5 -11.59375 C 7.175781 -11.59375 7.800781 -11.503906 8.375 -11.328125 C 8.945312 -11.148438 9.453125 -10.921875 9.890625 -10.640625 L 9.171875 -8.9375 C 8.316406 -9.53125 7.445312 -9.828125 6.5625 -9.828125 C 5.894531 -9.828125 5.269531 -9.644531 4.6875 -9.28125 C 4.101562 -8.914062 3.632812 -8.421875 3.28125 -7.796875 C 2.9375 -7.171875 2.765625 -6.488281 2.765625 -5.75 C 2.765625 -4.957031 2.925781 -4.25 3.25 -3.625 C 3.570312 -3 4.03125 -2.507812 4.625 -2.15625 C 5.21875 -1.8125 5.898438 -1.640625 6.671875 -1.640625 C 7.234375 -1.640625 7.734375 -1.722656 8.171875 -1.890625 C 8.617188 -2.054688 9 -2.269531 9.3125 -2.53125 Z M 10.078125 -0.890625 "/></g></g></g><g fill="#ffffff" fill-opacity="1"><g transform="translate(214.781744, 286.942126)"><g><path d="M 7.46875 -2.6875 L 3.296875 -2.6875 L 2.1875 0 L 0.375 0 L 5.453125 -11.9375 L 5.5625 -11.9375 L 10.625 0 L 8.515625 0 Z M 6.84375 -4.265625 L 5.421875 -7.890625 L 3.9375 -4.265625 Z M 6.84375 -4.265625 "/></g></g></g><g fill="#ffffff" fill-opacity="1"><g transform="translate(232.091213, 286.942126)"><g><path d="M 7.59375 -9.140625 C 6.601562 -9.648438 5.726562 -9.90625 4.96875 -9.90625 C 4.394531 -9.90625 3.941406 -9.78125 3.609375 -9.53125 C 3.285156 -9.28125 3.125 -8.929688 3.125 -8.484375 C 3.125 -8.054688 3.328125 -7.695312 3.734375 -7.40625 C 4.148438 -7.125 4.734375 -6.835938 5.484375 -6.546875 C 6.046875 -6.347656 6.53125 -6.117188 6.9375 -5.859375 C 7.34375 -5.609375 7.675781 -5.257812 7.9375 -4.8125 C 8.195312 -4.375 8.328125 -3.820312 8.328125 -3.15625 C 8.328125 -2.539062 8.175781 -1.984375 7.875 -1.484375 C 7.570312 -0.992188 7.128906 -0.601562 6.546875 -0.3125 C 5.972656 -0.0195312 5.289062 0.125 4.5 0.125 C 3.8125 0.125 3.128906 0.0195312 2.453125 -0.1875 C 1.785156 -0.40625 1.1875 -0.707031 0.65625 -1.09375 L 1.484375 -2.515625 C 1.867188 -2.222656 2.328125 -1.976562 2.859375 -1.78125 C 3.390625 -1.59375 3.878906 -1.5 4.328125 -1.5 C 4.890625 -1.5 5.378906 -1.628906 5.796875 -1.890625 C 6.210938 -2.160156 6.421875 -2.578125 6.421875 -3.140625 C 6.421875 -3.578125 6.242188 -3.941406 5.890625 -4.234375 C 5.546875 -4.523438 5.054688 -4.796875 4.421875 -5.046875 C 3.773438 -5.285156 3.234375 -5.519531 2.796875 -5.75 C 2.367188 -5.988281 2 -6.320312 1.6875 -6.75 C 1.382812 -7.175781 1.234375 -7.707031 1.234375 -8.34375 C 1.234375 -9.28125 1.550781 -10.035156 2.1875 -10.609375 C 2.820312 -11.179688 3.65625 -11.488281 4.6875 -11.53125 C 5.445312 -11.53125 6.113281 -11.441406 6.6875 -11.265625 C 7.257812 -11.097656 7.789062 -10.851562 8.28125 -10.53125 Z M 7.59375 -9.140625 "/></g></g></g><g fill="#ffffff" fill-opacity="1"><g transform="translate(247.557909, 286.942126)"><g><path d="M 3.421875 -11.46875 L 3.421875 0 L 1.578125 0 L 1.578125 -11.46875 Z M 3.421875 -11.46875 "/></g></g></g><g fill="#ffffff" fill-opacity="1"><g transform="translate(258.850792, 286.942126)"><g><path d="M 11.703125 -11.46875 L 11.703125 0.40625 L 11.65625 0.40625 L 3.390625 -7.609375 L 3.4375 0 L 1.578125 0 L 1.578125 -11.859375 L 1.671875 -11.859375 L 9.90625 -3.75 L 9.875 -11.46875 Z M 11.703125 -11.46875 "/></g></g></g><g fill="#ffffff" fill-opacity="1"><g transform="translate(278.444036, 286.942126)"><g><path d="M 0.859375 -5.71875 C 0.859375 -6.769531 1.117188 -7.742188 1.640625 -8.640625 C 2.171875 -9.535156 2.882812 -10.25 3.78125 -10.78125 C 4.6875 -11.320312 5.664062 -11.59375 6.71875 -11.59375 C 7.769531 -11.59375 8.742188 -11.320312 9.640625 -10.78125 C 10.546875 -10.25 11.265625 -9.53125 11.796875 -8.625 C 12.328125 -7.726562 12.59375 -6.757812 12.59375 -5.71875 C 12.59375 -4.65625 12.328125 -3.675781 11.796875 -2.78125 C 11.273438 -1.894531 10.5625 -1.1875 9.65625 -0.65625 C 8.75 -0.132812 7.769531 0.125 6.71875 0.125 C 5.664062 0.125 4.6875 -0.132812 3.78125 -0.65625 C 2.882812 -1.175781 2.171875 -1.878906 1.640625 -2.765625 C 1.117188 -3.660156 0.859375 -4.644531 0.859375 -5.71875 Z M 2.75 -5.71875 C 2.75 -4.96875 2.925781 -4.28125 3.28125 -3.65625 C 3.644531 -3.039062 4.132812 -2.550781 4.75 -2.1875 C 5.363281 -1.820312 6.035156 -1.640625 6.765625 -1.640625 C 7.492188 -1.640625 8.15625 -1.816406 8.75 -2.171875 C 9.351562 -2.535156 9.828125 -3.03125 10.171875 -3.65625 C 10.523438 -4.28125 10.703125 -4.96875 10.703125 -5.71875 C 10.703125 -6.457031 10.523438 -7.140625 10.171875 -7.765625 C 9.816406 -8.398438 9.332031 -8.898438 8.71875 -9.265625 C 8.113281 -9.640625 7.445312 -9.828125 6.71875 -9.828125 C 5.988281 -9.828125 5.320312 -9.640625 4.71875 -9.265625 C 4.113281 -8.898438 3.632812 -8.398438 3.28125 -7.765625 C 2.925781 -7.140625 2.75 -6.457031 2.75 -5.71875 Z M 2.75 -5.71875 "/></g></g></g></svg>